<svg width="37" height="27" viewBox="0 0 37 27" fill="none" xmlns="http://www.w3.org/2000/svg">
<path d="M0 26.8846L8.64162 26.3168L3.82902 19.1169L0 26.8846ZM25.2644 9.09522L5.195 22.5101L6.02857 23.7571L26.098 10.3423L25.2644 9.09522Z" fill="#D7525B"/>
<rect width="1.07966" height="1.07966" transform="matrix(-0.555364 -0.831607 -0.831607 0.555364 35.6418 8.7793)" fill="#D9565D"/>
<rect width="1.07966" height="1.07966" transform="matrix(-0.555364 -0.831607 -0.831607 0.555364 34.9092 7.68164)" fill="#D9565D"/>
<rect width="1.07966" height="1.07966" transform="matrix(-0.555364 -0.831607 -0.831607 0.555364 34.4946 9.54492)" fill="#D9565D"/>
<rect width="1.07966" height="1.07966" transform="matrix(-0.555364 -0.831607 -0.831607 0.555364 33.7617 8.44824)" fill="#D9565D"/>
<rect width="1.07966" height="1.07966" transform="matrix(-0.555364 -0.831607 -0.831607 0.555364 33.3975 10.2783)" fill="#D9565D"/>
<rect width="1.07966" height="1.07966" transform="matrix(-0.555364 -0.831607 -0.831607 0.555364 32.6646 9.18066)" fill="#D9565D"/>
<rect width="1.07966" height="1.07966" transform="matrix(-0.555364 -0.831607 -0.831607 0.555364 32.25 11.0439)" fill="#D9565D"/>
<rect width="1.07966" height="1.07966" transform="matrix(-0.555364 -0.831607 -0.831607 0.555364 35.2607 10.6934)" fill="#D9565D"/>
<rect width="1.07966" height="1.07966" transform="matrix(-0.555364 -0.831607 -0.831607 0.555364 34.1636 11.4258)" fill="#D9565D"/>
<rect width="1.07966" height="1.07966" transform="matrix(-0.555364 -0.831607 -0.831607 0.555364 33.0164 12.1924)" fill="#D9565D"/>
<rect width="1.07966" height="1.07966" transform="matrix(-0.555364 -0.831607 -0.831607 0.555364 31.5173 9.94727)" fill="#D9565D"/>
<rect width="1.07966" height="1.07966" transform="matrix(-0.555364 -0.831607 -0.831607 0.555364 27.4089 11.0312)" fill="#D9565D"/>
<rect width="1.07966" height="1.07966" transform="matrix(-0.555364 -0.831607 -0.831607 0.555364 26.6763 9.93457)" fill="#D9565D"/>
<rect width="1.07966" height="1.07966" transform="matrix(-0.555364 -0.831607 -0.831607 0.555364 31.1526 11.7773)" fill="#D9565D"/>
<rect width="1.07966" height="1.07966" transform="matrix(-0.555364 -0.831607 -0.831607 0.555364 30.4197 10.6797)" fill="#D9565D"/>
<rect width="1.07966" height="1.07966" transform="matrix(-0.555364 -0.831607 -0.831607 0.555364 32.9956 7.30078)" fill="#D9565D"/>
<rect width="1.07966" height="1.07966" transform="matrix(-0.555364 -0.831607 -0.831607 0.555364 31.8984 8.03418)" fill="#D9565D"/>
<rect width="1.07966" height="1.07966" transform="matrix(-0.555364 -0.831607 -0.831607 0.555364 31.1655 6.93652)" fill="#D9565D"/>
<rect width="1.07966" height="1.07966" transform="matrix(-0.555364 -0.831607 -0.831607 0.555364 30.751 8.7998)" fill="#D9565D"/>
<rect width="1.07966" height="1.07966" transform="matrix(-0.555364 -0.831607 -0.831607 0.555364 30.0183 7.70215)" fill="#D9565D"/>
<rect width="1.07966" height="1.07966" transform="matrix(-0.555364 -0.831607 -0.831607 0.555364 29.6536 9.5332)" fill="#D9565D"/>
<rect width="1.07966" height="1.07966" transform="matrix(-0.555364 -0.831607 -0.831607 0.555364 29.2727 11.4463)" fill="#D9565D"/>
<rect width="1.07966" height="1.07966" transform="matrix(-0.555364 -0.831607 -0.831607 0.555364 28.5063 10.2988)" fill="#D9565D"/>
<rect x="30.5454" y="1.14746" width="1.07966" height="1.07966" transform="rotate(56.2642 30.5454 1.14746)" fill="#D9565D"/>
<rect x="31.3115" y="2.29492" width="1.07966" height="1.07966" transform="rotate(56.2642 31.3115 2.29492)" fill="#D9565D"/>
<rect x="29.3982" y="1.91406" width="1.07966" height="1.07966" transform="rotate(56.2642 29.3982 1.91406)" fill="#D9565D"/>
<rect x="30.1643" y="3.06152" width="1.07966" height="1.07966" transform="rotate(56.2642 30.1643 3.06152)" fill="#D9565D"/>
<rect x="28.3008" y="2.64648" width="1.07966" height="1.07966" transform="rotate(56.2642 28.3008 2.64648)" fill="#D9565D"/>
<rect x="29.0671" y="3.79395" width="1.07966" height="1.07966" transform="rotate(56.2642 29.0671 3.79395)" fill="#D9565D"/>
<rect x="27.1536" y="3.41309" width="1.07966" height="1.07966" transform="rotate(56.2642 27.1536 3.41309)" fill="#D9565D"/>
<rect x="28.6318" y="0.766602" width="1.07966" height="1.07966" transform="rotate(56.2642 28.6318 0.766602)" fill="#D9565D"/>
<rect x="27.5347" y="1.5" width="1.07966" height="1.07966" transform="rotate(56.2642 27.5347 1.5)" fill="#D9565D"/>
<rect x="26.3875" y="2.26465" width="1.07966" height="1.07966" transform="rotate(56.2642 26.3875 2.26465)" fill="#D9565D"/>
<rect x="27.9197" y="4.55957" width="1.07966" height="1.07966" transform="rotate(56.2642 27.9197 4.55957)" fill="#D9565D"/>
<rect x="25.3103" y="7.88965" width="1.07966" height="1.07966" transform="rotate(56.2642 25.3103 7.88965)" fill="#D9565D"/>
<rect x="26.0562" y="4.14551" width="1.07966" height="1.07966" transform="rotate(56.2642 26.0562 4.14551)" fill="#D9565D"/>
<rect x="26.8223" y="5.29297" width="1.07966" height="1.07966" transform="rotate(56.2642 26.8223 5.29297)" fill="#D9565D"/>
<rect x="30.897" y="4.1582" width="1.07966" height="1.07966" transform="rotate(56.2642 30.897 4.1582)" fill="#D9565D"/>
<rect x="29.7998" y="4.8916" width="1.07966" height="1.07966" transform="rotate(56.2642 29.7998 4.8916)" fill="#D9565D"/>
<rect x="28.6526" y="5.6582" width="1.07966" height="1.07966" transform="rotate(56.2642 28.6526 5.6582)" fill="#D9565D"/>
<rect x="27.5549" y="6.39062" width="1.07966" height="1.07966" transform="rotate(56.2642 27.5549 6.39062)" fill="#D9565D"/>
<rect x="25.675" y="6.05859" width="1.07966" height="1.07966" transform="rotate(56.2642 25.675 6.05859)" fill="#D9565D"/>
<rect x="26.408" y="7.15625" width="1.07966" height="1.07966" transform="rotate(56.2642 26.408 7.15625)" fill="#D9565D"/>
<rect width="1.07966" height="1.07966" transform="matrix(-0.555364 -0.831607 -0.831607 0.555364 28.9209 8.43555)" fill="#D9565D"/>
<rect width="1.07966" height="1.07966" transform="matrix(-0.555364 -0.831607 -0.831607 0.555364 27.7737 9.20117)" fill="#D9565D"/>
<rect width="1.07966" height="1.07966" transform="matrix(-0.555364 -0.831607 -0.831607 0.555364 25.5291 10.7002)" fill="#D9565D"/>
</svg>
