<svg xmlns="http://www.w3.org/2000/svg" xmlns:xlink="http://www.w3.org/1999/xlink" version="1.1" x="0px" y="0px" width="900px" height="900px" viewBox="0 0 900 900" enable-background="new 0 0 900 900" xml:space="preserve"><path d="M69.59 15H809l0 0c-0.02 92.6 0.1 185.29-0.04 277.94c-3.92 43.9-11.66 87.42-21.34 130.4 c-16.68 71.88-40.08 142.8-76.01 207.49c-33.19 59.75-79.2 111.41-129.723 157.04c-42.729 38.18-93.245 74.577-142.644 103.638l0 0 c-32.061-18.647-66.415-41.629-95.745-64.308c-32.61-25.29-63.52-52.83-91.95-82.76c-26.08-27.33-50-56.83-70.31-88.723 c-19.48-30.64-35.5-63.38-49.05-97.027C111.7 507.6 96.8 454.4 85.7 400.47c-7.12-35.2-12.91-70.71-16.07-106.49 C69.43 203 69.6 15 69.6 15L69.59 15z"/><path fill="#D4222A" d="M78.53 23.5H800c0 87.5 0 175 0 262.47c-240.49 0-480.98 0-721.47 0 C78.47 198.5 78.6 111 78.5 23.5z"/><path fill="#090909" d="M136.58 69.76c12.39-1.89 25.05-0.75 37.54-0.22c9.52 1.2 19.3 2.9 27.7 7.9 c7.51-4.02 15.87-6.01 24.31-6.81c12.21-2.06 24.63-1.09 36.95-1.22c3.12-0.32 5.2 2.4 8 3.22c4.48 0.6 9.13-0.63 13.5 0.8 c2.92 1 4.4 4.1 4.8 7.01c0.51 4.87-0.31 9.8 0.5 14.67c5.42 1.6 11.37-0.43 16.8 1.18c5.61 3.3 6.9 12.1 2.3 16.8 c-1.29 1.42-2.98 2.7-5 2.68c-4.74 0.19-9.5 0.06-14.21 0.63c-0.27 3.87-0.33 7.76-0.29 11.64c0.09 19.16-0.13 38.3 0.1 57.5 c5.43 0.8 10.9 0 16.4 0.66c8.01 2.9 7.9 16.84-0.43 19.27c-5.17 0.51-10.44-0.1-15.55 1.1 c-1.44 7.4 0.5 15.13-0.93 22.56c-1.17 4.97-6.27 7.66-11.09 7.54c-21.98 0.13-43.97-0.01-65.96 0.1 c-4.16-0.08-7.8 2.82-12.02 2.22c-3.53-0.13-6.37-2.93-9.97-2.72c-21.65 0-43.31 0.04-64.97 0c-5.59 0.27-11.76-4.01-11.68-9.97 c-0.21-6.78 0.24-13.57-0.3-20.34c-4.69-0.41-9.4-0.12-14.09-0.43c-3.34-0.18-5.98-2.94-7.39-5.76c-1.22-5.01-0.59-11.95 4.99-14.04 c5.38-1.27 10.99-0.39 16.46-0.68c0.66-15.92 0.12-31.86 0.3-47.79c-0.14-7.1 0.38-14.229-0.44-21.31 c-5.28-0.26-10.59-0.25-15.83-0.95c-8.19-2.73-7.9-16.72 0.11-19.42c5.22-0.86 10.57-0.13 15.84-0.51 c0.55-5.23 0.08-10.5 0.48-15.74c0.41-4.13 4.45-7.27 8.51-7.18C126.97 71.8 132.3 72.9 136.6 69.76z"/><path fill="#090909" d="M367.11 71.8c1.77-0.5 3.26-1.64 4.987-2.24c12.28-1.49 24.67-0.62 36.99-0.03 c9.521 1.3 19.3 2.9 27.7 7.87c7.513-4.01 15.87-6.01 24.303-6.8c12.21-2.07 24.62-1.1 36.93-1.23c3.8-0.42 6.2 3.8 9.9 3.4 c4.95 0.4 11.66-1.58 14.9 3.37c3.229 5.9 0.8 13 2 19.41c4.69 0.2 9.4 0 14.1 0.2 c4.69-0.04 7.6 5 7.8 9.27c0.609 4.35-2.131 8.81-6.131 10.46c-5.197 1.01-10.76-0.58-15.79 1.3 c-0.567 22.86-0.22 45.77-0.17 68.64c5.4 0.8 10.9 0.1 16.3 0.65c7.11 2.5 8 13.6 2.2 18.1 c-1.62 1.55-3.979 1.38-6.03 1.45c-4.117-0.04-8.229 0.25-12.31 0.71c-0.39 6.24-0.16 12.49-0.17 18.7 c0.08 3.49-1.22 7.21-4.11 9.33c-3.027 2.16-6.93 2.21-10.5 2.23c-20.64-0.06-41.277 0.01-61.91-0.05 c-4.577-0.41-8.54 2.86-13.117 2.25c-3.5-0.17-6.33-2.94-9.91-2.72c-21.65 0.01-43.3 0.03-64.95 0c-5.57 0.26-11.75-3.98-11.68-9.94 c-0.21-6.79 0.237-13.6-0.313-20.38c-4.688-0.4-9.41-0.11-14.1-0.43c-3.34-0.18-5.95-2.93-7.37-5.74 c-1.22-5.01-0.602-11.94 4.97-14.04c5.38-1.29 11-0.4 16.49-0.69c0.65-16.24 0.11-32.52 0.29-48.77c-0.21-6.68 0.5-13.42-0.44-20.06 c-4.619-0.72-9.31-0.57-13.947-0.94c-4.521-0.11-8.053-4.66-7.74-9.04c-0.471-4.5 1.83-10.03 6.74-10.84 c5-0.5 10.027-0.04 15.05-0.32c0.527-4.98 0.18-10 0.43-14.99c0.021-4.03 3.55-7.49 7.48-7.86C359.66 71.7 363.4 72.2 367.1 71.8 z"/><path fill="#090909" d="M602.17 71.79c1.72-0.52 3.2-1.62 4.89-2.22c12.57-1.5 25.25-0.65 37.8 0 c6.01 0.9 12.1 1.8 17.9 3.69c3.15 1 5.9 2.8 9.1 3.86c3.51-1.18 6.74-3.06 10.33-4.01 c16.92-4.49 34.563-4.05 51.91-3.72c3.27 0.2 5.5 3.8 8.9 3.31c4.932 0.3 11.569-1.55 14.8 3.4 c3.171 5.9 1.1 12.9 1.8 19.28c4.79 0.4 9.6 0.2 14.4 0.34c4.64 0.1 7.5 5.1 7.7 9.29c0.6 4.29-2.04 8.55-5.86 10.4 c-5.3 0.87-10.73 0.14-16.05 0.96c-0.563 8.54-0.17 17.11-0.28 25.67c0.05 14.47-0.12 28.9 0.1 43.4 c5.41 0.8 10.9 0.1 16.3 0.66c7.84 2.8 8 16 0.3 19.13c-5.35 0.84-10.87-0.08-16.18 1.2 c-1.5 7.4 0.5 15.16-0.96 22.59c-1.17 4.92-6.2 7.6-10.99 7.51c-22.02 0.13-44.05-0.01-66.08 0.1 c-3.85-0.1-7.188 2.46-11.05 2.26c-3.94 0.28-7.04-2.98-10.96-2.76c-21.66 0-43.33 0.04-65 0c-5.59 0.24-11.73-4.08-11.6-10.04 c-0.2-6.75 0.229-13.52-0.29-20.27c-4.7-0.42-9.42-0.13-14.11-0.43c-3.36-0.19-6.02-2.97-7.41-5.83 c-1.18-4.99-0.55-11.87 4.99-13.96c5.38-1.29 11.01-0.4 16.49-0.69c0.66-15.94 0.12-31.9 0.3-47.85 c-0.14-7.08 0.37-14.19-0.43-21.24c-5.29-0.27-10.62-0.25-15.86-0.97c-8.18-2.75-7.88-16.75 0.16-19.42 c5.21-0.84 10.54-0.13 15.8-0.49c0.51-4.96 0.17-9.95 0.41-14.91c-0.011-4.05 3.5-7.55 7.45-7.93 C594.65 71.7 598.4 72.2 602.2 71.79z"/><path fill="#FFFFFF" d="M141.94 74.05c8.25-1.41 16.65-0.55 24.97-0.3c8.36 0.9 16.9 1.5 24.9 4.4c2.31 0.9 4.7 1.8 6.5 3.5 c1.11 1.9 1.3 4.2 1.3 6.32c0 16.28-0.04 32.6 0 48.83c-5.83 0.11-11.66 0.03-17.49 0.06c0.01-13.99 0-27.98 0-41.97 c-7.53 0-15.07 0-22.6 0c0 35.7 0 71.4 0 107.06c7.53 0 15.1 0 22.6 0c0-15.43 0-30.85 0-46.27c5.83 0 11.65-0.11 17.5 0.1 c-0.02 15.73-0.01 31.5 0 47.21c0.11 2.87-0.7 5.64-1.3 8.42c-5.17 0.09-10.24-1.09-15.38-1.39c-9.62-0.95-19.3-0.56-28.94-0.59 c-4.39-0.05-9.75 1.29-13.12-2.37c-1.56-2.34-1.6-5.36-1.66-8.08c0.05-39.66-0.05-79.33 0.05-118.98 C139.57 78 139.3 74.5 141.9 74.05z"/><path fill="#FFFFFF" d="M377.79 73.84c8.36-1.04 16.79-0.4 25.2 0c9.7 1.2 19.9 1.7 28.6 6.5 c4.49 3 2.6 9.2 3 13.73c-11.67 1.88-23.15 7.7-29.92 17.64c-9.143 12.34-11.91 28.36-10.57 43.4 c0.729 13 4.6 26.4 13.8 35.92c7.1 7.2 17 10.9 26.9 12.13c-0.23 2.8-0.83 5.55-1.45 8.3 c-2.47-0.05-4.95-0.1-7.38-0.51c-14.58-2.13-29.36-1.49-44.04-1.32c-2.43 0-4.92-1.03-6.41-3c-1.06-2.38-1.3-5.02-1.28-7.6 c0.03-39.37-0.01-78.75 0.021-118.12C374.44 78.3 374.2 74 377.8 73.84z"/><path fill="#FFFFFF" d="M612.08 74.01c3.58-0.72 7.29-0.53 10.93-0.81c11.26 0.3 22.6 0.9 33.6 3.4 c4.03 1.2 8.5 2.1 11.7 5.14c2.01 3.6 1.1 7.9 1.4 11.87c-7.32 1.16-14.893 3.37-20.21 8.8 c-7.803 7.64-9.633 19.71-7.103 30c2.51 9.3 10.1 16.4 18.4 20.82c6.59 4 14.2 6.7 19.5 12.6 c3.19 3.5 3.4 8.7 1.6 12.88c-1.87 4.05-6.57 5.66-10.73 5.91c-11.04 0.44-21.407-4.08-31.188-8.68c-0.01 7 0 14-0.01 21 c9.25 4.6 19.6 6.5 29.9 6.44c-0.33 2.7-0.91 5.36-1.49 8.02c-4.49 0.09-8.89-0.8-13.34-1.22 c-12.98-1.36-26.063-0.61-39.08-0.68c-4.46-0.13-6.893-4.43-6.643-8.51c-0.1-40.03-0.027-80.06-0.027-120.09 C609.51 78.6 609.1 74.6 612.1 74.01z"/><path fill="#FFFFFF" d="M206.93 80.63c10.17-5.31 21.9-5.35 33.04-6.25c7.6 0.3 15.37-0.89 22.8 0.9c1.35 4.1 0.9 8.5 1 12.8 c-0.01 37.3 0 74.67-0.01 112c-0.17 2.84-0.27 6.21-2.58 8.21c-1.91 1.78-4.69 1.83-7.15 1.9c-9.02-0.02-18.04 0-27.06-0.02 c-7.46-0.25-14.79 1.39-22.17 2.16c-0.41-1.03-0.85-2.04-1.2-3.07c-0.54-17.82-0.09-35.68-0.23-53.51c5.09 0 10.17-0.01 15.3 0 c0.01 15.4 0 30.9 0 46.27c7.51 0 15 0 22.5 0c0-35.69 0-71.38 0-107.06c-7.51 0-15.02 0-22.53 0 c0.01 14 0 28 0 41.97c-5.09-0.01-10.18 0-15.27 0c-0.02-16.77 0.04-33.54-0.04-50.3 C203.59 84.2 204.5 81.6 206.9 80.63z"/><path fill="#FFFFFF" d="M441.92 80.64c10.16-5.32 21.89-5.36 33.04-6.25c7.59 0.3 15.37-0.9 22.8 0.88c0.64 2.2 1.1 4.5 1 6.7 c-0.03 39.4 0 78.72-0.021 118.08c-0.17 3.02-0.34 6.72-3.1 8.59c-1.63 1.22-3.75 1.36-5.688 1.5 c-10.99 0.07-21.98-0.08-32.973 0.05c-5.777 0.47-11.51 1.45-17.26 2.11c-0.41-1.22-0.88-2.43-1.16-3.68 c-0.188-1.75-0.25-3.51-0.34-5.26c11.21 0.3 22.56-1.13 32.979-5.41c0-6.32 0-12.63 0.011-18.95c-12.103 4-25.5 8.04-38.063 3.7 c-9.34-3.37-14.02-13.32-15.26-22.58c-1.53-11.46-1.33-23.76 3.87-34.32c3.56-7.41 11.05-12.78 19.31-13.32 c9.54-1.16 18.3 3.4 26.9 6.87c2.438-6.12 4.84-12.26 7.31-18.37c-11.479-5.36-24.188-8.27-36.89-7.32c0-2.35 0-4.71-0.021-7.07 C438.6 84.2 439.5 81.6 441.9 80.64z"/><path fill="#FFFFFF" d="M702 75.07c5.97-0.94 12.02-0.65 18.04-0.75c4.25 0.2 8.62-0.35 12.8 0.96c0.62 2.2 1 4.5 1 6.7 c-0.04 39.4 0 78.71-0.03 118.07c-0.16 3.02-0.33 6.7-3.08 8.58c-1.607 1.21-3.71 1.36-5.64 1.5 c-11.03 0.07-22.07-0.09-33.102 0.06c-5.738 0.47-11.421 1.44-17.141 2.1c-0.397-1-0.83-1.99-1.16-3c-0.22-1.99-0.3-3.99-0.397-5.99 c8.22-1.02 16.739-3.29 22.93-9.11c8.18-7.48 10.43-19.74 7.87-30.2c-2.07-8.43-8.74-14.75-15.93-19.11 c-6.91-4.56-14.881-7.5-21.183-12.95c-6.09-5.14-4.26-17.04 3.84-19.01c9.212-2.14 18.3 1.9 26.6 5.6 c2.42-5.86 4.85-11.71 7.27-17.57c-9.78-4.6-20.41-7.68-31.3-7.51c0.03-2.95 0-5.9 0.27-8.84c0.843-3.33 4.353-4.55 7.183-5.71 C687.57 76.4 694.8 75.2 702 75.07z"/><path fill="#AE8732" d="M119.16 79.19c1.36-2.53 4.73-1.07 6.98-1.51c-1.37 1.46-2.77 2.88-4.18 4.3 c0.04 48 0 96 0 143.93c21.91-0.07 43.81-0.02 65.72-0.03c0.22 1.5 0.5 2.9 0.7 4.4 c-21.48-0.08-42.97 0.05-64.44-0.06c-2.96 0.32-5.44-2.32-5.21-5.23c-0.11-8.31 0.09-16.63 0.11-24.939 c-6.66-0.04-13.32-0.34-19.99-0.16c-2.71-2.32-3.32-6.09-0.94-8.92c6.94-0.5 13.92-0.01 20.87-0.23c0.02-26.9-0.02-53.8 0.01-80.71 c-6.7-0.12-13.44 0.01-20.1-0.69c-2.86-1.85-2.23-6-0.69-8.53c6.89-0.67 13.85-0.11 20.77-0.26 C119.03 93.4 118.3 86.3 119.2 79.19z"/><path fill="#AE8732" d="M276.3 78.03c2.12 0.1 4.3 0 6.4 0.4c1.08 1.3 1.4 3 1.3 4.57c0.02 6.01-0.01 12 0 18 c6.67 0.1 13.37-0.3 20 0.188c3.1 1.8 2.3 6.5 0.2 8.86c-6.75 0.13-13.49 0.63-20.24 0.66c0 26.8 0 53.6 0 80.4 c5.99 0.1 11.99-0.08 18 0c5.3-1.35 5.8 8.7 0.9 8.96c-6.29 0.46-12.6 0.57-18.9 0.68c0 7.73-0.01 15.5 0 23.2 c-0.02 1.9 0 4.06-1.4 5.51c-1.87 1.47-4.36 1.49-6.62 1.52c-20.79-0.02-41.58 0-62.37-0.02c0.28-1.53 0.56-3.061 0.84-4.59 c22.15-0.03 44.3 0 66.43-0.03c-0.12-47.98 0.02-95.97-0.07-143.96C279.3 81 277.8 79.5 276.3 78.03z"/><path fill="#AE8732" d="M354.16 79.17c1.41-2.45 4.74-1.09 6.99-1.48c-1.37 1.43-2.763 2.84-4.17 4.23c0 48 0 96 0 144 c21.907-0.06 43.817-0.04 65.729-0.01c0.21 1.4 0.4 2.9 0.7 4.36c-21.47-0.08-42.938 0.05-64.397-0.06 c-2.95 0.33-5.463-2.28-5.24-5.2c-0.11-8.32 0.08-16.64 0.107-24.97c-6.67-0.05-13.35-0.33-20.02-0.17 c-2.64-2.34-3.32-6.09-0.9-8.89c6.933-0.54 13.91-0.02 20.86-0.24c0.02-26.91-0.021-53.82 0.01-80.72 c-6.7-0.12-13.438 0.01-20.1-0.69c-2.87-1.86-2.222-6.02-0.683-8.55c6.893-0.63 13.843-0.1 20.75-0.24 C354.03 93.4 353.3 86.2 354.2 79.17z"/><path fill="#AE8732" d="M511.28 78.04c2.1 0.1 4.2 0 6.3 0.36c1.13 1.2 1.4 2.9 1.4 4.55c0.02 6.03-0.01 12.1 0 18.1 c6.81-0.03 13.6 0.1 20.45-0.07c1.938 2.8 2.2 6.55-0.21 9.12c-6.75 0.13-13.49 0.63-20.24 0.66c0 26.8 0 53.6 0 80.4 c6.02 0.1 12.04-0.08 18.1 0c5.263-1.24 5.7 8.8 0.8 8.96c-6.29 0.47-12.603 0.57-18.9 0.68c-0.1 8.7 0.2 17.46-0.14 26.2 c-0.37 3.29-4.12 4.13-6.86 4.03c-21.13 0.02-42.25 0.02-63.38 0c0.28-1.53 0.56-3.06 0.85-4.59c22.143-0.03 44.3 0 66.42-0.02 c-0.1-47.99 0.03-95.99-0.06-143.98C514.29 81 512.8 79.5 511.3 78.04z"/><path fill="#AE8732" d="M589 80.04c0.42-3.44 4.75-2.03 7.06-2.4c-1.46 1.99-4.38 3.46-4.077 6.29c-0.013 47.3 0 94.7 0 142 c21.907-0.07 43.81-0.03 65.72-0.02c0.22 1.4 0.4 2.9 0.7 4.37c-20.819-0.03-41.63-0.05-62.45 0 c-1.979-0.11-4.33 0.18-5.8-1.45c-1.56-1.49-1.38-3.85-1.46-5.82c0.08-7.66 0.11-15.32 0.18-22.97c-6.67-0.04-13.34-0.33-20-0.17 c-2.688-2.33-3.317-6.08-0.92-8.91c6.933-0.5 13.9-0.01 20.853-0.22c0.04-26.9-0.03-53.81 0.028-80.71 c-6.698-0.14-13.438 0.01-20.091-0.7c-2.897-1.83-2.26-6.05-0.67-8.56c6.88-0.6 13.82-0.1 20.73-0.229 C588.95 93.7 588.5 86.8 589 80.04z"/><path fill="#AE8732" d="M746.4 77.99c2.08 0.1 4.2 0.1 6.3 0.44c1.053 1.2 1.3 2.9 1.3 4.5 c0.021 6.03-0.021 12.1 0 18.1c6.79-0.03 13.6 0.1 20.37-0.09c2.08 2.7 2.3 6.57-0.142 9.1 c-6.75 0.13-13.479 0.63-20.229 0.66c0 26.8 0 53.6 0 80.41c6.01 0.1 12.01-0.07 18 0c5.271-1.3 5.7 8.8 0.9 9 c-6.28 0.46-12.59 0.57-18.88 0.68c-0.11 8.7 0.2 17.47-0.15 26.18c-0.367 3.29-4.147 4.12-6.89 4 c-21.11 0.02-42.229 0.02-63.34 0c0.27-1.53 0.56-3.06 0.85-4.59c22.143-0.03 44.3 0 66.42-0.01 c-0.08-47.14-0.02-94.28-0.027-141.42C751.36 81.8 748.2 80.1 746.4 77.99z"/><path fill="#AE8732" d="M127.59 87.04c-0.16-3.96 4.18-5.77 6.53-8.31c0.02 41.1 0 82.2 0 123.3c-0.05 3.6 1 7.5 3.9 9.8 c2.48 2.1 5.8 2.9 9 2.83c14.98-0.05 30.12-1.03 45 1.64c-0.98 1.21-1.95 2.43-2.92 3.66c-20.46-0.01-40.93-0.03-61.4 0 C127.58 175.7 127.6 131.4 127.6 87.04z"/><path fill="#AE8732" d="M268.26 78.9c2.25 2 4.5 4 6.7 6.08c0 45.3 0 90.6 0 135.87c-20.47-0.14-40.94 0.04-61.42-0.09 c-0.86-1.43-1.72-2.84-2.58-4.26c6.01-0.32 12-0.97 18-1.43c8.68-0.17 17.37-0.15 26.1 0.14c3.98 0.1 8.39-0.82 11.04-4.04 c2.24-2.48 2.2-6.02 2.26-9.15C268.24 161 268.4 119.9 268.3 78.9z"/><path fill="#AE8732" d="M362.54 84.8c2.12-2.08 4.33-4.09 6.56-6.06c0.07 41.1 0 82.2 0 123.3 c-0.09 3.9 1.2 8.1 4.5 10.36c4.45 3.2 10.2 2.2 15.4 2.22c12.648-0.11 25.398-0.52 37.9 1.7 c-0.979 1.23-1.96 2.46-2.93 3.71c-20.46-0.03-40.92-0.04-61.38 0C362.54 174.9 362.7 129.9 362.5 84.8z"/><path fill="#AE8732" d="M503.27 78.89c2.24 2 4.5 4 6.7 6.08c0 45.3 0 90.6 0 135.88c-20.47-0.14-40.94 0.04-61.4-0.09 c-0.867-1.42-1.75-2.84-2.607-4.25c7.99-0.33 15.92-1.7 23.938-1.53c6.683-0.03 13.36-0.02 20 0.23c4.03 0.1 8.5-0.81 11.17-4.1 c2.19-2.47 2.15-5.98 2.21-9.09C503.25 161 503.4 119.9 503.3 78.89z"/><path fill="#AE8732" d="M597.59 87.02c-0.147-3.95 4.18-5.76 6.53-8.29c0.02 41.1 0 82.2 0 123.3 c-0.063 3.6 0.9 7.5 3.9 9.86c2.48 2.1 5.8 2.9 9 2.83c14.973-0.08 30.08-0.97 44.9 1.6 c-0.979 1.229-1.95 2.47-2.9 3.72c-20.47-0.03-40.938-0.04-61.397 0C597.58 175.7 597.6 131.3 597.6 87.02z"/><path fill="#AE8732" d="M738.26 78.91c2.25 2 4.5 4 6.7 6.06c0 45.3 0 90.6 0 135.88c-16.65-0.11-33.3-0.02-49.96-0.05 c-3.78-0.09-7.62 0.34-11.36-0.27c-1.05-1.25-1.897-2.64-2.79-3.99c6.021-0.38 12.03-0.99 18.04-1.47 c8.69-0.18 17.393-0.15 26.1 0.14c3.98 0.1 8.41-0.8 11.07-4.04c2.24-2.47 2.2-6.02 2.26-9.16 C738.24 161 738.4 120 738.3 78.91z"/><path d="M202.36 84.6c0.24 0.5 0.7 1.5 1 2.01c0.08 16.8 0 33.5 0 50.3c5.09 0 10.18-0.01 15.3 0 c-0.01-13.99 0-27.98-0.01-41.97c7.51 0 15 0 22.5 0c0 35.7 0 71.4 0 107.06c-7.51 0-15.02 0-22.53 0 c0-15.42 0.01-30.85 0-46.27c-5.09-0.02-10.17-0.01-15.26-0.01c0.14 17.83-0.31 35.7 0.2 53.51c-1.37-1-1.73-2.62-1.66-4.2 c0.02-16.37 0.11-32.73 0-49.09c-0.58-0.03-1.74-0.09-2.33-0.12c-5.82-0.2-11.64-0.07-17.47-0.09c0 15.4 0 30.8 0 46.3 c-7.53 0-15.07 0-22.6 0c0-35.69 0-71.38 0-107.06c7.53 0 15.1 0 22.6 0c0 14 0 28 0 42 c5.83-0.03 11.7 0.1 17.49-0.06c0.56-0.01 1.69-0.04 2.26-0.05C202.34 119.4 201.5 102 202.4 84.6z"/><path d="M437.42 84.61c0.23 0.5 0.7 1.5 0.9 1.96c0.021 2.4 0 4.7 0 7.07c12.7-0.95 25.4 2 36.9 7.3 c-2.47 6.11-4.87 12.25-7.31 18.37c-8.53-3.52-17.313-8.03-26.853-6.87c-8.26 0.54-15.75 5.91-19.31 13.3 c-5.2 10.56-5.4 22.86-3.87 34.32c1.24 9.3 5.9 19.2 15.3 22.58c12.563 4.4 26 0.3 38.063-3.68 c-0.01 6.32-0.01 12.63-0.01 18.95c-10.423 4.28-21.771 5.75-32.98 5.41c0.09 1.8 0.1 3.5 0.3 5.26l-1.28 0.3 c-0.188-1.81-0.38-3.62-0.56-5.42c-0.49-0.08-1.479-0.25-1.97-0.33c-9.893-1.23-19.78-4.91-26.88-12.13 c-9.19-9.55-13.053-22.95-13.78-35.92c-1.34-15.05 1.43-31.07 10.57-43.41c6.77-9.94 18.25-15.76 29.92-17.64 c0.56-0.12 1.67-0.34 2.229-0.45C436.93 90.6 437.1 87.6 437.4 84.61z"/><path d="M669.65 93.6c4.18-0.68 0.857-6.79 3.947-9.01c-0.27 2.94-0.237 5.89-0.27 8.84c10.89-0.17 21.5 2.9 31.3 7.5 c-2.42 5.86-4.85 11.71-7.27 17.57c-8.263-3.68-17.382-7.72-26.593-5.58c-8.1 1.97-9.93 13.87-3.84 19 c6.301 5.5 14.3 8.4 21.2 12.95c7.188 4.4 13.9 10.7 15.9 19.11c2.56 10.5 0.3 22.72-7.87 30.2 c-6.189 5.82-14.71 8.09-22.93 9.11c0.1 2 0.2 4 0.4 5.99c-1.479-1.6-1.68-3.8-2.067-5.82c-0.44-0.02-1.313-0.04-1.75-0.05 c-10.29 0.05-20.672-1.8-29.922-6.44c0.012-7 0-14 0.012-21c9.779 4.6 20.1 9.1 31.2 8.68c4.16-0.25 8.86-1.86 10.73-5.91 c1.7-4.17 1.54-9.43-1.65-12.88c-5.22-5.91-12.88-8.63-19.47-12.64c-8.3-4.45-15.86-11.47-18.37-20.82 c-2.53-10.29-0.7-22.36 7.102-30C654.76 97 662.3 94.8 669.6 93.6z"/><path fill="#AE8732" d="M197.45 219.42c3.69-2.36 9.02-0.5 10.6 3.57c3.02 5.29-3.34 12.25-8.98 10 C192.83 231.6 191.8 222.4 197.4 219.42z"/><path fill="#AE8732" d="M432.41 219.44c3.688-2.39 9.04-0.54 10.6 3.53c3.063 5.313-3.367 12.313-9.02 10 C427.83 231.5 426.9 222.4 432.4 219.44z"/><path fill="#AE8732" d="M667.44 219.42c3.688-2.37 9.027-0.5 10.6 3.57c3.027 5.3-3.34 12.25-8.98 10 C662.83 231.6 661.8 222.4 667.4 219.42z"/><path fill="#FFFFFF" d="M79 295.01c240.16-0.02 480.33-0.01 720.49-0.01c-4.63 44.81-12.563 89.26-22.91 133.1 c-10.33 43.12-23.22 85.69-39.83 126.83c-15.13 37.6-33.42 74.061-56.1 107.7c-33.57 49.67-75.223 93.52-120.95 132.1 c-25.23 21.393-51.67 41.34-79.12 59.8c-13.55 8.95-27.14 17.91-41.36 25.78c-28.96-16.55-56.487-35.51-83.14-55.52 c-60.83-46.103-116.8-99.75-159.49-163.34c-21.71-32.36-39.31-67.33-54.02-103.37c-17.96-44.11-31.67-89.86-42.39-136.23 C90.63 380.1 83.3 337.7 79 295.01z"/><path d="M163.45 322.64c7.35-2.23 15.88-1.72 22.4 2.56c9.04 6.1 12.8 17.3 14.3 27.66c1.58 12.2 1.2 25.01-2.85 36.8 c-2.51 6.92-6.8 13.67-13.55 17.09c-9.8 4.771-23 3.23-30.33-5.237c-8.18-9.433-10.21-22.453-10.55-34.521 c-0.06-11.07 1.21-22.6 6.72-32.41C152.69 329.2 157.4 324.5 163.4 322.64z"/><path d="M295.42 322.65c7.12-2.18 15.28-1.73 21.8 2.09c7.75 4.8 11.8 13.6 13.9 22.16c2.521 11.5 2.6 23.5 0.4 35 c-1.61 7.74-4.67 15.542-10.45 21.13c-7.58 7.12-19.66 8.14-28.84 3.688c-8.58-4.42-13.07-13.79-15.28-22.78 c-2.77-12.59-2.76-25.87 0.31-38.4C279.7 335.9 285.4 325.8 295.4 322.65z"/><path d="M361.44 322.65c7.107-2.18 15.27-1.73 21.8 2.09c9.26 5.8 13.3 17 14.9 27.33c1.75 12.5 1.4 25.52-2.71 37.5 c-2.5 6.92-6.77 13.66-13.487 17.11c-9.79 4.8-22.99 3.29-30.353-5.15c-8.22-9.43-10.26-22.48-10.6-34.57 c-0.063-11.28 1.26-23.07 7.04-32.99C351.03 328.9 355.6 324.4 361.4 322.65z"/><path d="M493.45 322.64c7.107-2.17 15.29-1.72 21.8 2.12c7.73 4.8 11.8 13.6 13.9 22.12c2.51 11.5 2.6 23.5 0.4 35 c-1.61 7.75-4.67 15.56-10.47 21.17c-7.563 7.1-19.62 8.13-28.79 3.71c-8.59-4.41-13.103-13.79-15.313-22.78 c-2.81-12.75-2.8-26.23 0.44-38.91C477.87 335.6 483.6 325.8 493.4 322.64z"/><path d="M559.45 322.64c7.1-2.16 15.24-1.72 21.7 2.09c8.13 5 12.2 14.4 14.2 23.39c2.407 12.3 2.4 25.14-0.7 37.3 c-2.23 8.22-6.48 16.58-14.143 20.93c-9.88 5.223-23.51 3.813-31.027-4.84c-7.74-8.86-9.99-21.05-10.5-32.46 c-0.34-10.53 0.62-21.39 4.92-31.12C546.9 331.1 552.2 324.9 559.5 322.64z"/><path d="M625.46 322.64c7.1-2.17 15.25-1.72 21.7 2.1c8.107 5 12.2 14.4 14.2 23.37c2.407 12.3 2.4 25.22-0.73 37.4 c-2.229 8.19-6.479 16.5-14.1 20.83c-9.683 5.12-22.94 3.893-30.58-4.31c-6.95-7.55-9.643-17.95-10.63-27.92 c-0.99-11.67-0.34-23.78 3.97-34.78C612.26 332 617.6 325 625.5 322.64z"/><path d="M691.41 322.65c7.13-2.18 15.31-1.73 21.8 2.11c9.223 5.8 13.2 16.9 14.8 27.25c1.76 12.5 1.4 25.55-2.688 37.6 c-2.513 6.94-6.803 13.71-13.553 17.15c-9.81 4.78-23.027 3.24-30.35-5.239c-8.18-9.438-10.21-22.451-10.55-34.528 c-0.063-11.04 1.2-22.55 6.688-32.34C680.65 329.2 685.4 324.5 691.4 322.65z"/><path d="M225.86 330.94c3.38-2.23 6.45-4.9 9.74-7.27c3.27 0 6.5 0 9.8 0.02c-0.01 25 0 50 0 75 c6.68 0 13.4 0 20 0c0 2.8 0 5.5 0 8.27c-16.77 0-33.55 0-50.33 0c0-2.76 0-5.52 0-8.28c6.82 0 13.6 0 20.4 0 c0-21.49 0.01-42.98-0.01-64.473c-6.1 4.93-13.02 8.73-20.44 11.3c0-3-0.01-6.01 0.05-9C218.74 334.7 222.4 333 225.9 330.94z "/><path d="M423.83 330.96c3.39-2.23 6.46-4.91 9.76-7.28c3.28 0 6.6 0 9.8 0.01c0 25.01-0.01 50 0 75 c6.683 0 13.4 0 20 0c0 2.8 0 5.5 0 8.27c-16.77 0-33.55 0-50.33 0c0-2.76 0-5.52 0-8.28c6.82 0 13.6 0 20.4 0 c0-21.49 0-42.99 0-64.48c-6.11 4.94-13.03 8.74-20.45 11.31c0-3.01-0.01-6.01 0.05-9.01C416.73 334.7 420.4 333 423.8 330.96z "/><path fill="#FFFFFF" d="M161.96 333.97c3.85-4.45 10.75-5.72 15.98-3.07c3.12 1.3 4.9 4.3 6.7 7 c-9.68 15.09-19.25 30.26-28.98 45.32c-2.53-10.35-2.54-21.19-0.99-31.69C155.87 345.3 157.7 338.8 162 333.97z"/><path fill="#FFFFFF" d="M293.98 333.95c3.84-4.43 10.72-5.7 15.94-3.05c3.13 1.3 4.9 4.3 6.7 7 c-9.683 15.09-19.25 30.26-28.98 45.31c-2.53-10.37-2.54-21.23-0.97-31.75C287.89 345.2 289.7 338.8 294 333.95z"/><path fill="#FFFFFF" d="M359.94 333.99c3.827-4.44 10.697-5.74 15.93-3.12c3.147 1.3 5 4.3 6.8 7 c-9.683 15.08-19.24 30.25-28.98 45.3c-2.53-10.37-2.54-21.23-0.97-31.75C353.89 345.3 355.7 338.8 359.9 333.99z"/><path fill="#FFFFFF" d="M486.18 345.17c1.96-6.8 6.11-14.65 13.96-15.49c6.15-1.15 11.8 2.9 14.5 8.2 c-9.683 15.09-19.25 30.26-28.98 45.32C482.81 370.8 482.8 357.5 486.2 345.17z"/><path fill="#FFFFFF" d="M557.47 334.51c3.771-4.79 10.91-6.39 16.37-3.65c3.17 1.3 5 4.3 6.8 7 c-9.683 15.09-19.25 30.26-28.98 45.31c-2.5-10.17-2.52-20.81-1.07-31.14C551.7 345.9 553.4 339.5 557.5 334.51z"/><path fill="#FFFFFF" d="M623.94 333.99c3.827-4.44 10.688-5.74 15.92-3.12c3.157 1.3 5 4.3 6.8 7 c-9.683 15.1-19.263 30.26-28.98 45.32c-2.53-10.36-2.54-21.22-0.979-31.73C617.88 345.3 619.7 338.8 623.9 333.99z"/><path fill="#FFFFFF" d="M689.51 334.47c3.771-4.77 10.893-6.34 16.33-3.61c3.17 1.3 5 4.3 6.8 7.1 c-9.683 15.08-19.24 30.25-28.98 45.3c-2.49-10.17-2.52-20.8-1.08-31.12C683.7 345.9 685.5 339.5 689.5 334.47z"/><path fill="#FFFFFF" d="M159.43 393.44c9.56-15.21 19.11-30.43 28.74-45.6c3.36 13.4 2.8 27.78-1.72 40.8 c-1.67 4.71-4.5 9.48-9.34 11.45c-3.93 1.46-8.7 1.51-12.27-0.91C162.58 397.8 161 395.5 159.4 393.44z"/><path fill="#FFFFFF" d="M291.43 393.44c9.56-15.21 19.1-30.43 28.74-45.59c3.48 14 2.8 29.21-2.47 42.7 c-2.04 5.34-6.66 10.27-12.7 10.48C299.24 402 294.3 398 291.4 393.44z"/><path fill="#FFFFFF" d="M357.43 393.44c9.563-15.22 19.12-30.44 28.74-45.62c3.47 14.1 2.9 29.25-2.479 42.8 c-2.04 5.32-6.65 10.25-12.673 10.45C365.26 402 360.3 398 357.4 393.44z"/><path fill="#FFFFFF" d="M489.44 393.54c9.447-15.31 19.13-30.49 28.729-45.71c3.34 13.4 2.8 27.74-1.7 40.8 c-1.67 4.74-4.51 9.542-9.37 11.52c-3.93 1.45-8.688 1.49-12.26-0.92C492.61 397.8 491.1 395.6 489.4 393.54z"/><path fill="#FFFFFF" d="M555.43 393.45c9.553-15.23 19.11-30.44 28.74-45.61c3.48 14 2.8 29.19-2.45 42.7 c-2.05 5.35-6.67 10.31-12.729 10.51C563.24 402 558.3 398 555.4 393.45z"/><path fill="#FFFFFF" d="M621.43 393.44c9.563-15.22 19.13-30.44 28.74-45.62c3.34 13.4 2.8 27.77-1.71 40.8 c-1.67 4.72-4.51 9.52-9.36 11.49c-3.938 1.45-8.72 1.49-12.277-0.938C624.56 397.8 623 395.5 621.4 393.44z"/><path fill="#FFFFFF" d="M687.43 393.44c9.553-15.22 19.12-30.43 28.74-45.61c3.47 14 2.8 29.17-2.43 42.7 c-2.04 5.35-6.643 10.317-12.7 10.54C695.27 402.1 690.3 398 687.4 393.44z"/><path d="M262.42 469.65c7.12-2.19 15.32-1.73 21.8 2.117c8.08 5 12.1 14.4 14.1 23.313c2.41 12.3 2.4 25.17-0.7 37.3 c-2.24 8.271-6.53 16.68-14.27 21c-9.86 5.13-23.42 3.71-30.9-4.91c-7.76-8.89-10-21.1-10.51-32.54c-0.32-10.487 0.64-21.31 4.91-31 C249.88 478.2 255.1 471.9 262.4 469.65z"/><path d="M328.44 469.64c7.327-2.22 15.85-1.72 22.4 2.53c9.08 6.1 12.9 17.3 14.4 27.7c1.567 12.2 1.2 24.93-2.82 36.7 c-2.51 6.989-6.84 13.8-13.66 17.229c-9.8 4.73-22.96 3.17-30.26-5.3c-8.16-9.41-10.19-22.41-10.54-34.47 c-0.063-11.05 1.188-22.57 6.68-32.37C317.65 476.2 322.4 471.5 328.4 469.64z"/><path d="M394.37 469.67c7.13-2.2 15.33-1.76 21.8 2.08c8.1 5 12.2 14.4 14.2 23.36c2.47 12.8 2.4 26.27-1.16 38.9 c-2.28 7.723-6.57 15.41-13.8 19.45c-9.87 5.14-23.44 3.71-30.92-4.92c-7.73-8.87-9.98-21.05-10.49-32.46 c-0.34-10.29 0.6-20.86 4.607-30.43C381.58 478.6 386.9 472 394.4 469.67z"/><path d="M460.48 469.63c8.237-2.5 18.037-1.5 24.7 4.313c7.72 6.8 10.9 17.2 12.2 27.147c1.38 12.3 0.9 25.07-3.473 36.7 c-2.89 7.43-8.157 14.57-16.02 17.11c-9.32 3.147-20.813 1.229-27.4-6.46c-8.188-9.433-10.22-22.45-10.56-34.521 c-0.063-11.05 1.2-22.56 6.688-32.36C449.66 476.2 454.4 471.5 460.5 469.63z"/><path d="M658.44 469.64c7.327-2.22 15.85-1.72 22.4 2.53c9.1 6.1 12.9 17.4 14.4 27.771c1.56 12.2 1.2 24.93-2.853 36.6 c-2.5 6.938-6.79 13.688-13.54 17.13c-9.81 4.79-23.027 3.25-30.357-5.24c-8.16-9.42-10.19-22.42-10.54-34.479 c-0.063-11.05 1.188-22.563 6.68-32.36C647.64 476.2 652.4 471.5 658.4 469.64z"/><path d="M192.8 477.97c3.41-2.229 6.49-4.92 9.79-7.3c3.28 0 6.6 0 9.8 0.021c0 25.01-0.01 50 0 75 c6.68 0 13.4 0 20 0c0 2.8 0 5.5 0 8.27c-16.77 0-33.55 0-50.33 0c0-2.76 0-5.52 0-8.28c6.82 0 13.6 0 20.4 0 c0-21.473 0-42.933 0-64.393c-6.18 4.8-13.03 8.682-20.45 11.22c0-3.01-0.01-6.01 0.05-9.01 C185.73 481.7 189.3 480 192.8 477.97z"/><path d="M522.87 477.93c3.38-2.229 6.438-4.897 9.729-7.26c3.271 0 6.6 0 9.8 0.021c0 25.01-0.01 50 0 75 c6.683 0 13.4 0 20 0c0 2.8 0 5.5 0 8.271c-16.78 0-33.55 0-50.33 0c0-2.76 0-5.521 0-8.28c6.82 0 13.6 0 20.4 0 c0-21.49 0-42.98 0-64.473c-6.1 4.933-13.021 8.71-20.42 11.3c-0.04-3-0.05-6.01 0.02-9.01 C515.74 481.7 519.4 480 522.9 477.93z"/><path d="M588.79 477.98c3.41-2.23 6.49-4.923 9.8-7.303c3.271 0 6.6 0 9.8 0.013c0 25.01-0.01 50 0 75 c6.683 0 13.4 0 20.03-0.013c0 2.8 0 5.5 0 8.28c-16.78 0-33.55 0-50.33 0c0-2.76 0-5.521 0-8.28 c6.82 0 13.6 0 20.4 0.013c0-21.49 0-42.98 0-64.473c-6.11 4.933-13.03 8.73-20.45 11.3c0-3-0.01-6 0.04-9 C581.71 481.7 585.3 480 588.8 477.98z"/><path fill="#FFFFFF" d="M255.18 492.17c1.92-6.45 5.6-13.9 12.88-15.3c6.42-1.73 12.8 2.3 15.6 8 c-9.69 15.09-19.26 30.26-28.99 45.32C251.8 517.8 251.8 504.5 255.2 492.17z"/><path fill="#FFFFFF" d="M326.96 480.97c3.83-4.43 10.69-5.72 15.91-3.1c3.16 1.3 5 4.3 6.8 7 c-9.683 15.1-19.263 30.26-28.98 45.32c-2.53-10.36-2.54-21.213-0.979-31.723C320.88 492.3 322.7 485.8 327 480.97z"/><path fill="#FFFFFF" d="M387.17 492.19c1.96-6.79 6.09-14.65 13.93-15.513c6.16-1.16 11.9 2.9 14.6 8.2 c-9.683 15.09-19.24 30.26-28.98 45.31C383.81 517.8 383.8 504.5 387.2 492.19z"/><path fill="#FFFFFF" d="M453.18 492.17c1.96-6.81 6.12-14.67 13.98-15.5c6.14-1.13 11.8 2.9 14.5 8.2 c-9.683 15.09-19.24 30.26-28.98 45.31C449.81 517.8 449.8 504.5 453.2 492.17z"/><path fill="#FFFFFF" d="M651.17 492.21c1.95-6.79 6.07-14.65 13.9-15.52c6.17-1.183 11.9 2.9 14.6 8.2 c-9.683 15.08-19.24 30.25-28.98 45.3C647.81 517.8 647.8 504.6 651.2 492.21z"/><path fill="#FFFFFF" d="M258.43 540.44c9.56-15.21 19.11-30.433 28.74-45.603c3.48 14 2.8 29.24-2.48 42.7 c-2.04 5.34-6.68 10.27-12.72 10.46C266.22 549 261.3 545 258.4 540.44z"/><path fill="#FFFFFF" d="M324.43 540.44c9.553-15.223 19.12-30.433 28.74-45.62c3.34 13.4 2.8 27.77-1.71 40.8 c-1.68 4.729-4.53 9.527-9.4 11.487c-3.92 1.433-8.67 1.48-12.229-0.938C327.58 544.8 326 542.5 324.4 540.44z"/><path fill="#FFFFFF" d="M390.43 540.44c9.553-15.223 19.13-30.44 28.74-45.62c3.47 14 2.9 29.197-2.45 42.7 c-2.04 5.37-6.68 10.34-12.75 10.53C398.22 549 393.3 545 390.4 540.44z"/><path fill="#FFFFFF" d="M456.43 540.44c9.553-15.23 19.143-30.44 28.74-45.643c3.46 14.1 2.9 29.26-2.479 42.8 c-2.04 5.32-6.643 10.24-12.66 10.45C464.27 549 459.3 545 456.4 540.44z"/><path fill="#FFFFFF" d="M654.43 540.45c9.553-15.23 19.12-30.44 28.74-45.63c3.35 13.4 2.8 27.817-1.729 40.9 c-1.683 4.7-4.53 9.48-9.37 11.42c-3.92 1.45-8.67 1.49-12.23-0.92C657.58 544.8 656 542.5 654.4 540.45z"/><path d="M328.45 616.64c7.12-2.18 15.31-1.72 21.8 2.143c9.21 5.8 13.2 16.9 14.8 27.25c1.75 12.5 1.4 25.56-2.71 37.6 c-2.51 6.92-6.8 13.68-13.54 17.107c-9.817 4.78-23.04 3.23-30.367-5.26c-8.173-9.44-10.19-22.46-10.53-34.53 c-0.05-11.06 1.21-22.59 6.729-32.39C317.69 623.2 322.4 618.5 328.4 616.64z"/><path d="M460.44 616.64c7.107-2.17 15.26-1.72 21.8 2.103c9.26 5.8 13.3 17 14.9 27.318c1.75 12.5 1.4 25.552-2.72 37.6 c-2.51 6.92-6.8 13.67-13.55 17.09c-9.79 4.771-22.98 3.24-30.312-5.22c-7.738-8.88-9.988-21.08-10.5-32.51 c-0.318-10.521 0.642-21.37 4.939-31.08C447.91 625.1 453.2 618.9 460.4 616.64z"/><path d="M526.46 616.64c7.1-2.17 15.24-1.72 21.7 2.103c9.25 5.8 13.3 16.9 14.9 27.277c1.763 12.5 1.4 25.563-2.71 37.6 c-2.52 6.938-6.817 13.71-13.59 17.13c-9.81 4.75-22.99 3.2-30.31-5.271c-8.17-9.43-10.2-22.438-10.54-34.51 c-0.063-11.04 1.2-22.56 6.688-32.35C515.65 623.2 520.4 618.5 526.5 616.64z"/><path d="M258.79 624.98c3.41-2.24 6.49-4.933 9.8-7.313c3.28 0 6.6 0 9.8 0.021c0 25 0 50 0 75 c6.68 0 13.4 0 20 0c0 2.8 0 5.5 0 8.271c-16.77 0-33.55 0-50.33 0c0-2.771 0-5.521 0-8.28c6.82 0 13.6 0 20.4 0 c0-21.488 0-42.988 0-64.479c-6.11 4.93-13.03 8.74-20.45 11.31c0-3-0.01-6 0.04-8.987C251.71 628.7 255.3 627 258.8 624.98z"/><path d="M390.85 624.95c3.383-2.23 6.45-4.91 9.74-7.271c3.271 0 6.6 0 9.8 0.013c0 25.01-0.01 50 0 75 c6.683 0 13.4 0 20 0c0 2.8 0 5.5 0 8.27c-16.78 0-33.55 0-50.33 0c0-2.77 0-5.52 0-8.28c6.82 0 13.6 0 20.4 0 c0-21.489 0-42.979 0-64.472c-6.11 4.92-13.03 8.73-20.45 11.3c0-3.01-0.01-6 0.04-9C383.73 628.7 387.4 627 390.9 624.95z"/><path d="M588.85 624.94c3.393-2.23 6.45-4.9 9.75-7.271c3.271 0 6.6 0 9.8 0.021c0 25.01-0.01 50 0 75 c6.683 0 13.4 0 20 0c0 2.8 0 5.5 0 8.27c-16.78 0-33.55 0-50.33 0c0-2.77 0-5.52 0-8.28c6.813 0 13.6 0 20.4 0 c0-21.488 0.01-42.979-0.01-64.471c-6.103 4.933-13.021 8.73-20.44 11.3c-0.01-3.01-0.02-6.01 0.05-9.01 C581.74 628.7 585.4 627 588.9 624.94z"/><path fill="#FFFFFF" d="M321.19 639.13c1.96-6.77 6.09-14.59 13.907-15.45c6.15-1.16 11.9 2.9 14.6 8.2 c-9.69 15.08-19.25 30.25-28.99 45.3C317.8 664.8 317.8 651.5 321.2 639.13z"/><path fill="#FFFFFF" d="M458.93 628c3.82-4.43 10.66-5.75 15.893-3.15c3.18 1.3 5 4.3 6.8 7.1 c-9.683 15.08-19.25 30.25-28.98 45.311c-2.53-10.381-2.54-21.238-0.97-31.761C452.89 639.3 454.7 632.8 458.9 628z"/><path fill="#FFFFFF" d="M519.17 639.21c1.95-6.8 6.08-14.66 13.93-15.53c6.16-1.16 11.9 2.9 14.6 8.2 c-9.69 15.08-19.23 30.25-28.99 45.29C515.81 664.8 515.8 651.5 519.2 639.21z"/><path fill="#FFFFFF" d="M324.43 687.42c9.58-15.2 19.11-30.42 28.74-45.59c3.48 14 2.8 29.22-2.46 42.7 c-2.04 5.34-6.65 10.28-12.68 10.49C332.26 696 327.3 692 324.4 687.42z"/><path fill="#FFFFFF" d="M456.43 687.42c9.58-15.21 19.12-30.43 28.74-45.6c3.47 14.1 2.9 29.27-2.49 42.8 c-2.04 5.32-6.647 10.23-12.67 10.433C464.25 696 459.3 692 456.4 687.42z"/><path fill="#FFFFFF" d="M522.43 687.43c9.563-15.21 19.11-30.43 28.74-45.6c3.48 14 2.8 29.22-2.47 42.7 c-2.04 5.36-6.683 10.3-12.74 10.49C530.22 696 525.3 692 522.4 687.43z"/><path d="M430.94 766.63c3.31-3.34 8.317-1.47 12.487-1.93c-0.01 25 0 50 0 75.03c6.683 0 13.4 0 20 0 c0 2.8 0 5.5 0 8.27c-16.78 0-33.55 0-50.33 0c0-2.77 0-5.53 0-8.28c6.82 0 13.6 0 20.4 0.011c0-21.5 0-42.988 0-64.479 c-6.101 4.94-13.03 8.74-20.45 11.31c0-3.01-0.01-6.01 0.05-9.01C419.45 774.5 425.7 771.3 430.9 766.63z"/></svg>