<svg width="240" height="241" viewBox="0 0 240 241" fill="none" xmlns="http://www.w3.org/2000/svg">
<path d="M215.621 146.644C218.254 147.325 219.461 148.567 219.141 149.807C218.935 150.6 218.385 150.892 217.475 150.656L210.969 148.973L210.348 151.374L217.26 153.162C219.138 153.649 220.547 152.836 221.013 151.035C221.333 149.796 220.911 148.633 219.771 147.532C221.212 147.471 222.165 146.582 222.491 145.323C222.776 144.219 222.441 143.12 221.494 142.07L223.063 142.475L223.684 140.075L213.925 137.549L213.304 139.95L216.886 140.877C219.674 141.599 220.94 142.856 220.619 144.095C220.413 144.889 219.863 145.18 218.953 144.945L212.447 143.261L211.826 145.662L215.621 146.644Z" fill="#D7525B"/>
<path d="M211.757 165.396C212.332 165.984 212.405 166.673 211.994 167.474C211.455 168.524 210.745 168.811 209.874 168.363L209.482 168.162L210.25 166.668C211.419 164.391 211.058 162.249 209.279 161.335C207.553 160.449 205.972 161.076 205.159 162.659C204.574 163.798 204.526 164.942 205.023 166.074L203.766 165.721L202.834 167.535L208.189 170.286C210.697 171.575 212.591 170.951 213.88 168.443C214.803 166.646 214.492 164.8 213.144 163.748L211.757 165.396ZM208.127 163.666C208.892 164.059 209.018 164.776 208.497 165.79L207.739 167.267L207.561 167.175C207.009 166.892 206.674 166.45 206.555 165.85C206.428 165.267 206.496 164.695 206.78 164.144C207.081 163.556 207.646 163.419 208.127 163.666Z" fill="#D7525B"/>
<path d="M197.588 179.343C197.632 179.006 197.754 178.699 197.952 178.422C198.464 177.707 199.078 177.606 200.053 178.304L203.598 180.843L202.049 183.006L203.772 184.24L205.321 182.078L208.638 184.454L208.814 181.529L206.766 180.062L207.674 178.793L205.951 177.559L205.042 178.827L201.465 176.265C199.465 174.832 197.637 175.221 196.286 177.107C195.949 177.578 195.732 178.087 195.624 178.649L197.588 179.343Z" fill="#D7525B"/>
<path d="M189.254 190.921C188.837 189.769 188.99 188.804 189.698 188.07C190.753 186.976 192.201 187.261 193.525 188.538C194.85 189.815 195.187 191.252 194.132 192.346C193.424 193.08 192.465 193.267 191.299 192.893L190.406 195.115C192.329 195.887 194.075 195.459 195.658 193.818C196.755 192.68 197.228 191.469 197.119 190.17C197.011 188.871 196.41 187.708 195.33 186.666C194.25 185.625 193.066 185.067 191.764 185.006C190.461 184.944 189.268 185.461 188.172 186.599C186.589 188.24 186.225 190 187.065 191.894L189.254 190.921Z" fill="#D7525B"/>
<path d="M178.798 195.357L176.782 196.801L179.263 200.265C180.742 202.33 180.633 204.032 179.592 204.777C178.779 205.359 178.023 205.163 177.325 204.187L173.644 199.049L171.628 200.493L175.821 206.347C176.986 207.973 178.567 208.119 180.144 206.99C181.266 206.186 181.794 205.069 181.709 203.679L185.028 208.313L187.044 206.869L178.798 195.357Z" fill="#D7525B"/>
<path d="M156.256 212.634C157.287 215.15 157.016 216.861 155.831 217.346C155.072 217.657 154.509 217.391 154.153 216.521L151.605 210.303L149.31 211.244L152.017 217.85C152.753 219.645 154.248 220.286 155.969 219.581C157.153 219.096 157.832 218.061 158.03 216.489C158.942 217.606 160.225 217.837 161.428 217.344C162.483 216.912 163.162 215.985 163.437 214.597L164.051 216.096L166.346 215.156L162.523 205.829L160.229 206.769L161.632 210.193C162.724 212.858 162.475 214.624 161.291 215.109C160.532 215.42 159.969 215.154 159.612 214.284L157.064 208.066L154.769 209.006L156.256 212.634Z" fill="#D7525B"/>
<path d="M138.961 220.736C138.837 221.549 138.329 222.021 137.442 222.173C136.279 222.372 135.623 221.977 135.458 221.011L135.383 220.577L137.039 220.294C139.563 219.863 141.059 218.288 140.722 216.316C140.395 214.404 138.944 213.516 137.19 213.816C135.928 214.032 134.984 214.68 134.377 215.758L133.905 214.54L131.894 214.884L132.909 220.818C133.384 223.597 135.02 224.738 137.799 224.263C139.79 223.922 141.08 222.565 141.112 220.856L138.961 220.736ZM138.166 216.794C138.311 217.642 137.813 218.173 136.689 218.365L135.053 218.645L135.019 218.448C134.915 217.837 135.067 217.304 135.476 216.848C135.866 216.396 136.364 216.108 136.975 216.003C137.626 215.892 138.075 216.262 138.166 216.794Z" fill="#D7525B"/>
<path d="M123.146 215.526L120.666 215.507L120.629 220.267L117.106 215.479L114.066 215.456L118.324 220.929L114.249 225.538L117.308 225.561L120.619 221.627L120.557 229.666L123.037 229.686L123.146 215.526Z" fill="#D7525B"/>
<path d="M106.124 226.434C105.595 225.734 104.565 225.59 103.865 226.118C103.166 226.647 103.022 227.677 103.55 228.377C104.079 229.076 105.109 229.22 105.808 228.692C106.508 228.163 106.652 227.133 106.124 226.434ZM107.859 214.721L105.403 214.378L104.01 224.362L106.466 224.704L107.859 214.721Z" fill="#D7525B"/>
<path d="M97.1456 212.799L94.7673 212.096L93.6279 215.951C92.908 218.387 91.4876 219.594 90.2601 219.231C89.3395 218.959 89.0379 218.286 89.3497 217.231L91.1806 211.036L88.8023 210.333L86.7616 217.238C86.2004 219.137 87.0891 220.505 88.8729 221.032C90.0812 221.389 91.2486 221.109 92.3694 220.209L91.9103 221.763L94.2886 222.466L97.1456 212.799Z" fill="#D7525B"/>
<path d="M76.9658 212.835C77.3378 212.104 77.4323 211.389 77.2855 210.663C78.2431 210.59 78.9349 210.156 79.3522 209.337C79.6334 208.784 79.7089 208.239 79.5964 207.71C80.3045 207.51 80.8625 207.031 81.2344 206.3C81.7153 205.355 81.7129 204.434 81.2274 203.536C80.7241 202.629 79.8707 201.881 78.6765 201.273C77.2506 200.547 75.875 200.296 74.5383 200.849C73.8834 201.122 73.3701 201.601 73.0163 202.297C72.1544 203.99 72.9034 205.56 74.8284 206.54L76.6643 207.475C77.2169 207.756 77.3932 208.115 77.1664 208.561C77.0212 208.846 76.7607 209.005 76.3938 209.02C76.0474 208.687 75.6381 208.389 75.1925 208.162C74.2478 207.681 73.3275 207.549 72.4315 207.766C71.5264 208.001 70.8336 208.569 70.3709 209.478C70.0988 210.013 69.9786 210.557 70.0016 211.085L68.3917 211.074L68.5211 212.98L70.668 212.95C71.0488 213.481 71.5379 213.887 72.1261 214.186C73.0708 214.667 74.0002 214.781 74.9052 214.546C75.8103 214.311 76.5031 213.744 76.9658 212.835ZM76.271 204.941C75.3085 204.451 74.9815 203.903 75.299 203.279C75.671 202.548 76.4853 202.491 77.733 203.126C78.9451 203.743 79.5203 204.597 79.0939 205.435C78.9125 205.791 78.7051 206.022 78.4806 206.155C78.2226 205.956 77.893 205.766 77.4831 205.557L76.271 204.941ZM74.8982 211.782C74.5263 212.513 73.7463 212.767 73.0333 212.404C72.3203 212.041 72.0665 211.261 72.4385 210.53C72.8014 209.817 73.5723 209.581 74.2853 209.944C74.9982 210.307 75.2611 211.069 74.8982 211.782Z" fill="#D7525B"/>
<path d="M36.4888 176.069C35.5718 176.746 34.8365 177.737 34.476 178.898C34.0834 180.083 34.3249 181.521 35.2755 182.808C37.3312 185.591 40.4033 185.038 42.3338 183.612C44.2643 182.186 45.6966 179.412 43.6409 176.629C42.3338 174.859 40.6424 174.219 38.5549 174.692L39.1479 176.74C40.341 176.605 41.2464 176.955 41.8524 177.776C42.708 178.934 42.3782 180.272 41.4325 181.045L37.3092 175.463L36.4888 176.069ZM36.9807 181.548C36.2915 180.615 36.3786 179.656 37.2418 178.67L39.8203 182.161C38.8608 182.646 37.6818 182.498 36.9807 181.548Z" fill="#D7525B"/>
<path d="M29.0271 167.513L27.4557 170.174L28.6522 172.483L31.4812 167.727L37.7947 168.217L36.5982 165.908L32.7381 165.589L34.7022 162.251L33.5057 159.942L30.2663 165.383L24.7498 164.954L25.9463 167.262L29.0271 167.513Z" fill="#D7525B"/>
<path d="M25.5348 148.773C26.7484 148.943 27.5303 149.528 27.8488 150.497C28.3234 151.941 27.3953 153.088 25.6473 153.662C23.8993 154.237 22.4715 153.864 21.9968 152.42C21.6783 151.451 21.9605 150.516 22.8368 149.66L21.2886 147.832C19.7082 149.173 19.2709 150.916 19.9829 153.082C20.4762 154.583 21.326 155.567 22.5255 156.078C23.7251 156.589 25.0342 156.601 26.4592 156.132C27.8842 155.664 28.931 154.878 29.5935 153.755C30.2559 152.632 30.3562 151.336 29.8628 149.835C29.1508 147.669 27.7641 146.524 25.6966 146.383L25.5348 148.773Z" fill="#D7525B"/>
<path d="M20.1721 130.387C19.0443 130.553 17.9294 131.081 17.0649 131.937C16.1608 132.798 15.6974 134.18 15.9308 135.763C16.4353 139.186 19.4066 140.143 21.781 139.793C24.1553 139.443 26.7242 137.669 26.2196 134.246C25.8988 132.07 24.7076 130.709 22.6431 130.144L22.2027 132.231C23.3191 132.673 23.9531 133.408 24.1018 134.417C24.3118 135.842 23.3915 136.867 22.1933 137.104L21.1812 130.238L20.1721 130.387ZM18.0281 135.454C17.8589 134.306 18.3871 133.501 19.6126 133.037L20.2455 137.331C19.1706 137.307 18.2002 136.621 18.0281 135.454Z" fill="#D7525B"/>
<path d="M25.0925 123.149L25.0542 120.67L10.8959 120.888L10.9342 123.368L25.0925 123.149Z" fill="#D7525B"/>
<path d="M25.3026 113.506L25.5128 111.035L11.4037 109.835L11.1935 112.306L25.3026 113.506Z" fill="#D7525B"/>
<path d="M23.2337 93.8833C22.1209 93.6356 20.8909 93.7307 19.7778 94.2205C18.6258 94.7017 17.6991 95.8273 17.3515 97.3891C16.5998 100.766 19.0331 102.722 21.3757 103.243C23.7184 103.765 26.7513 103.026 27.5031 99.6486C27.981 97.5011 27.3547 95.8045 25.6284 94.5392L24.4715 96.3307C25.3563 97.1423 25.6857 98.0557 25.4641 99.0513C25.1513 100.457 23.9254 101.086 22.7215 100.879L24.2293 94.1049L23.2337 93.8833ZM19.4209 97.8497C19.6729 96.7174 20.454 96.1536 21.7643 96.1584L20.8214 100.395C19.8258 99.9887 19.1645 99.0015 19.4209 97.8497Z" fill="#D7525B"/>
<path d="M30.9431 87.143L31.9177 84.8625L28.2211 83.2827C25.8855 82.2845 24.8518 80.7335 25.3548 79.5565C25.7321 78.6738 26.4357 78.4525 27.4472 78.8847L33.3874 81.4234L34.3621 79.143L27.7413 76.3135C25.9206 75.5353 24.4586 76.259 23.7277 77.9694C23.2325 79.128 23.3755 80.3201 24.1383 81.5379L22.6487 80.9012L21.6741 83.1817L30.9431 87.143Z" fill="#D7525B"/>
<path d="M39.3959 63.6053C40.0109 64.6652 40.0324 65.6415 39.4661 66.4898C38.6221 67.754 37.1466 67.7308 35.6163 66.7092C34.086 65.6875 33.4989 64.3337 34.3429 63.0695C34.9092 62.2212 35.8192 61.8668 37.0339 62.0284L37.518 59.6824C35.4881 59.265 33.8457 59.9961 32.5797 61.8924C31.7024 63.2064 31.452 64.4821 31.7895 65.7415C32.1271 67.0009 32.9251 68.0387 34.1727 68.8716C35.4202 69.7044 36.6847 70.0436 37.9773 69.8725C39.2698 69.7014 40.352 68.981 41.2292 67.6669C42.4952 65.7707 42.5408 63.9735 41.377 62.2587L39.3959 63.6053Z" fill="#D7525B"/>
<path d="M50.6986 47.8528C49.8722 47.0675 48.7689 46.5156 47.5625 46.3623C46.3272 46.1816 44.9532 46.6692 43.851 47.829C41.4674 50.337 42.5463 53.2662 44.286 54.9196C46.0257 56.5729 49.0059 57.5015 51.3895 54.9935C52.9051 53.3988 53.2418 51.6219 52.4136 49.6483L50.4994 50.5882C50.8399 51.7396 50.6519 52.6922 49.9493 53.4316C48.9573 54.4754 47.5827 54.383 46.657 53.5861L51.4379 48.5555L50.6986 47.8528ZM45.3877 49.2894C46.1868 48.4486 47.1467 48.3676 48.2674 49.0464L45.2776 52.1923C44.6333 51.3316 44.5748 50.1448 45.3877 49.2894Z" fill="#D7525B"/>
<path d="M83.1773 21.7917C82.2972 22.1219 81.6653 22.6581 81.3073 23.4119C80.9493 24.1657 80.9073 24.9078 81.1954 25.6755C81.7013 27.0237 82.6728 27.4496 84.0609 27.5055C84.4729 27.5218 85.2056 27.4818 85.5801 27.5122C85.7697 27.5051 85.9851 27.5098 86.1887 27.5402C86.6078 27.5752 86.8489 27.7624 86.9613 28.062C87.2143 28.7361 86.9475 29.2207 86.1798 29.5088C85.2997 29.839 84.4663 29.5536 83.7053 28.6642L82.2239 30.3523C82.7578 30.921 83.4507 31.3445 84.2958 31.6042C85.1409 31.8639 86.0257 31.8309 86.9245 31.4937C87.917 31.1213 88.6097 30.5196 88.9958 29.6698C89.3819 28.82 89.4262 27.9702 89.096 27.0902C88.85 26.4348 88.3396 25.9854 87.9393 25.7725C87.745 25.6532 87.4641 25.5877 87.0825 25.5386C86.7197 25.4825 86.4458 25.4357 86.2749 25.4358L85.3644 25.457L84.5989 25.4665C83.9154 25.4666 83.5034 25.2795 83.3558 24.8862C83.1661 24.3806 83.454 23.9522 83.9221 23.7766C84.54 23.5447 85.1697 23.6289 85.8042 24.0103L86.712 22.217C85.7686 21.5243 84.4319 21.3209 83.1773 21.7917Z" fill="#D7525B"/>
<path d="M93.5088 16.8574C94.2575 17.3137 95.2682 17.0684 95.7245 16.3197C96.1808 15.571 95.9356 14.5603 95.1868 14.104C94.4381 13.6477 93.4275 13.8929 92.9711 14.6417C92.5148 15.3904 92.7601 16.401 93.5088 16.8574ZM96.2035 28.3871L98.6136 27.8023L96.2367 18.0065L93.8266 18.5913L96.2035 28.3871Z" fill="#D7525B"/>
<path d="M106.606 26.2036L109.075 25.9744L108.703 21.9716C108.469 19.4425 109.34 17.7949 110.615 17.6766C111.571 17.5879 112.1 18.1011 112.202 19.1964L112.799 25.6287L115.268 25.3996L114.603 18.2304C114.42 16.2588 113.087 15.318 111.235 15.4899C109.981 15.6063 109.001 16.2999 108.293 17.5506L108.143 15.9375L105.674 16.1667L106.606 26.2036Z" fill="#D7525B"/>
<path d="M131.659 22.3832C131.019 23.4286 130.171 23.9123 129.155 23.818C127.642 23.6776 126.96 22.3689 127.13 20.5368C127.3 18.7047 128.211 17.5439 129.724 17.6844C130.74 17.7787 131.485 18.4102 131.921 19.5554L134.215 18.8644C133.615 16.8805 132.191 15.7842 129.92 15.5735C128.347 15.4274 127.106 15.8144 126.159 16.7107C125.212 17.6071 124.68 18.8029 124.541 20.2965C124.402 21.7901 124.706 23.0636 125.472 24.1189C126.237 25.1742 127.386 25.7829 128.959 25.929C131.23 26.1397 132.832 25.3243 133.786 23.4846L131.659 22.3832Z" fill="#D7525B"/>
<path d="M150.859 24.7871C151.158 23.6868 151.119 22.4537 150.68 21.3195C150.252 20.1467 149.17 19.1696 147.626 18.7511C144.286 17.8461 142.222 20.1877 141.594 22.5041C140.966 24.8206 141.566 27.8841 144.905 28.7891C147.029 29.3645 148.752 28.8162 150.095 27.1494L148.358 25.912C147.507 26.7589 146.579 27.0463 145.595 26.7795C144.205 26.4028 143.633 25.1496 143.894 23.9564L150.593 25.7716L150.859 24.7871ZM147.071 20.7973C148.191 21.1007 148.718 21.9068 148.654 23.2155L144.465 22.0803C144.916 21.1043 145.932 20.4887 147.071 20.7973Z" fill="#D7525B"/>
<path d="M186.994 37.2649L185.23 39.3357L188.308 39.8552L181.513 47.8339L183.432 49.4678L192.509 38.8091L191.671 38.0959L186.994 37.2649Z" fill="#D7525B"/>
<path d="M190.653 56.8595L192.469 58.9912L200.672 57.3644C201.564 57.2089 202.331 56.8447 202.986 56.2871C203.975 55.4443 204.515 54.3808 204.586 53.1381C204.657 51.8953 204.279 50.7725 203.423 49.7676C202.554 48.7474 201.506 48.1952 200.268 48.0676C199.029 47.94 197.907 48.3182 196.917 49.1611C195.897 50.0299 195.332 51.0628 195.234 52.2752C195.153 53.4745 195.533 54.5691 196.376 55.5588L196.583 55.8024L190.653 56.8595ZM201.352 54.3686C200.301 55.2633 199.063 55.1357 198.246 54.1764C197.429 53.2171 197.5 51.9743 198.551 51.0796C199.571 50.2108 200.866 50.3429 201.657 51.2718C202.435 52.1854 202.372 53.4998 201.352 54.3686Z" fill="#D7525B"/>
<path d="M201.598 71.6377L202.969 74.0794L211.331 74.0641C212.237 74.0835 213.06 73.874 213.809 73.453C214.943 72.8167 215.677 71.8772 215.987 70.6714C216.296 69.4657 216.141 68.2911 215.495 67.14C214.839 65.9715 213.917 65.2276 212.727 64.8638C211.536 64.4999 210.362 64.6546 209.228 65.2909C208.06 65.9468 207.306 66.8514 206.977 68.0223C206.665 69.1834 206.828 70.3308 207.464 71.4644L207.621 71.7435L201.598 71.6377ZM212.576 71.2555C211.373 71.931 210.182 71.5671 209.565 70.4684C208.949 69.3696 209.258 68.1639 210.462 67.4884C211.63 66.8325 212.875 67.2117 213.472 68.2756C214.059 69.322 213.745 70.5997 212.576 71.2555Z" fill="#D7525B"/>
<path d="M211.542 93.9976L214.012 93.1857L214.499 94.6676L216.703 93.9432L216.216 92.4612L224.842 89.6257L224.017 87.1177L212.561 84.673L211.345 85.0727L213.225 90.7917L210.755 91.6036L211.542 93.9976ZM220.502 88.3996L215.429 90.0672L214.505 87.2552L220.502 88.3996Z" fill="#D7525B"/>
</svg>
