<svg width="112" height="100" viewBox="0 0 112 100" fill="none" xmlns="http://www.w3.org/2000/svg">
<rect x="12.6794" y="0.000183105" width="10.5664" height="10.5664" fill="#D7525B"/>
<rect width="10.5664" height="10.5664" transform="matrix(-1 0 0 1 99.3206 0.000427246)" fill="#D7525B"/>
<rect x="38.0391" y="12.6798" width="10.5664" height="10.5664" fill="#D7525B"/>
<rect width="10.5664" height="10.5664" transform="matrix(-1 0 0 1 73.9619 12.6797)" fill="#D7525B"/>
<rect x="50.7161" y="25.3592" width="10.5664" height="10.5664" fill="#D7525B"/>
<rect x="25.3596" width="10.5664" height="10.5664" fill="#D7525B"/>
<rect width="10.5664" height="10.5664" transform="matrix(-1 0 0 1 86.6414 0.000671387)" fill="#D7525B"/>
<rect x="12.6794" y="12.6805" width="10.5664" height="10.5664" fill="#D7525B"/>
<rect width="10.5664" height="10.5664" transform="matrix(-1 0 0 1 99.3206 12.6805)" fill="#D7525B"/>
<rect x="38.0391" y="25.36" width="10.5664" height="10.5664" fill="#D7525B"/>
<rect width="10.5664" height="10.5664" transform="matrix(-1 0 0 1 73.9619 25.3594)" fill="#D7525B"/>
<rect x="50.7161" y="38.0388" width="10.5664" height="10.5664" fill="#D7525B"/>
<rect x="25.3596" y="12.6802" width="10.5664" height="10.5664" fill="#D7525B"/>
<rect width="10.5664" height="10.5664" transform="matrix(-1 0 0 1 86.6414 12.6795)" fill="#D7525B"/>
<rect x="12.6794" y="25.3597" width="10.5664" height="10.5664" fill="#D7525B"/>
<rect width="10.5664" height="10.5664" transform="matrix(-1 0 0 1 99.3206 25.3588)" fill="#D7525B"/>
<rect x="38.0391" y="38.0392" width="10.5664" height="10.5664" fill="#D7525B"/>
<rect width="10.5664" height="10.5664" transform="matrix(-1 0 0 1 73.9619 38.0382)" fill="#D7525B"/>
<rect x="50.7161" y="50.717" width="10.5664" height="10.5664" fill="#D7525B"/>
<rect x="25.3596" y="25.3599" width="10.5664" height="10.5664" fill="#D7525B"/>
<rect width="10.5664" height="10.5664" transform="matrix(-1 0 0 1 86.6414 25.3592)" fill="#D7525B"/>
<rect x="12.6794" y="38.0394" width="10.5664" height="10.5664" fill="#D7525B"/>
<rect width="10.5664" height="10.5664" transform="matrix(-1 0 0 1 99.3206 38.0385)" fill="#D7525B"/>
<rect x="38.0391" y="50.7194" width="10.5664" height="10.5664" fill="#D7525B"/>
<rect width="10.5664" height="10.5664" transform="matrix(-1 0 0 1 73.9619 50.7179)" fill="#D7525B"/>
<rect x="50.717" y="63.3973" width="10.5664" height="10.5664" fill="#D7525B"/>
<rect y="12.6804" width="10.5664" height="10.5664" fill="#D7525B"/>
<rect width="10.5664" height="10.5664" transform="matrix(-1 0 0 1 112 12.6797)" fill="#D7525B"/>
<rect y="25.3595" width="10.5664" height="10.5664" fill="#D7525B"/>
<rect width="10.5664" height="10.5664" transform="matrix(-1 0 0 1 112 25.3589)" fill="#D7525B"/>
<rect y="38.0404" width="10.5664" height="10.5664" fill="#D7525B"/>
<rect width="10.5664" height="10.5664" transform="matrix(-1 0 0 1 112 38.0385)" fill="#D7525B"/>
<rect x="25.3596" y="38.0396" width="10.5664" height="10.5664" fill="#D7525B"/>
<rect width="10.5664" height="10.5664" transform="matrix(-1 0 0 1 86.6414 38.0388)" fill="#D7525B"/>
<rect x="12.6794" y="50.7201" width="10.5664" height="10.5664" fill="#D7525B"/>
<rect width="10.5664" height="10.5664" transform="matrix(-1 0 0 1 99.3206 50.7173)" fill="#D7525B"/>
<rect x="38.0381" y="63.3972" width="10.5664" height="10.5664" fill="#D7525B"/>
<rect width="10.5664" height="10.5664" transform="matrix(-1 0 0 1 73.9619 63.3967)" fill="#D7525B"/>
<rect x="50.7161" y="76.0754" width="10.5664" height="10.5664" fill="#D7525B"/>
<rect x="38.0381" y="76.0764" width="10.5664" height="10.5664" fill="#D7525B"/>
<rect width="10.5664" height="10.5664" transform="matrix(-1 0 0 1 73.9619 76.0759)" fill="#D7525B"/>
<rect x="50.7161" y="88.7557" width="10.5664" height="10.5664" fill="#D7525B"/>
<rect x="25.3596" y="50.7194" width="10.5664" height="10.5664" fill="#D7525B"/>
<rect width="10.5664" height="10.5664" transform="matrix(-1 0 0 1 86.6401 50.7175)" fill="#D7525B"/>
<rect x="25.3586" y="63.397" width="10.5664" height="10.5664" fill="#D7525B"/>
<rect width="10.5664" height="10.5664" transform="matrix(-1 0 0 1 86.6414 63.3972)" fill="#D7525B"/>
</svg>
