<svg width="328" height="582" viewBox="0 0 328 582" fill="none" xmlns="http://www.w3.org/2000/svg">
<g clip-path="url(#clip0_12542_26705)">
<rect width="328" height="582" rx="3" fill="#F4F2F2"/>
<rect x="123.449" y="24.4254" width="26.9186" height="355.325" rx="2" transform="rotate(26.1211 123.449 24.4254)" fill="#E9E9E9" fill-opacity="0.5"/>
<rect width="26.9186" height="355.325" rx="2" transform="matrix(-0.897865 0.440271 0.440271 0.897865 252.549 304.754)" fill="#E9E9E9" fill-opacity="0.5"/>
<rect x="133.12" y="29.1667" width="26.9186" height="355.325" rx="2" transform="rotate(26.1211 133.12 29.1667)" fill="#C4C4C4" fill-opacity="0.2"/>
<rect width="26.9186" height="355.325" rx="2" transform="matrix(-0.897865 0.440271 0.440271 0.897865 242.878 309.495)" fill="#C4C4C4" fill-opacity="0.2"/>
<path d="M159.296 49.1444C159.595 48.5332 160.409 48.3972 160.899 48.8696C194.17 80.9275 232.182 96.4221 270.274 99.2151C308.521 102.02 337.154 122.385 370.781 151.093C371.128 151.389 371.233 151.886 371.032 152.295L309.64 277.495C309.353 278.081 308.587 278.236 308.088 277.814C279.691 253.804 253.823 239.233 213.912 231.988C165.444 223.189 128.197 214.254 94.0625 183.841C93.7286 183.544 93.6314 183.057 93.8283 182.655L159.296 49.1444Z" fill="#B86F6F" fill-opacity="0.1"/>
<path d="M216.702 329.473C216.403 328.862 215.589 328.726 215.099 329.198C181.828 361.256 143.816 376.751 105.724 379.544C67.4769 382.348 38.844 402.713 5.2172 431.421C4.87008 431.718 4.76494 432.214 4.96589 432.624L66.3579 557.824C66.6451 558.41 67.4115 558.564 67.9097 558.143C96.3072 534.133 122.175 519.562 162.086 512.316C210.554 503.517 247.801 494.583 281.935 464.17C282.269 463.872 282.367 463.385 282.17 462.984L216.702 329.473Z" fill="#B86F6F" fill-opacity="0.1"/>
</g>
<defs>
<clipPath id="clip0_12542_26705">
<rect width="328" height="582" rx="3" fill="white"/>
</clipPath>
</defs>
</svg>
