<svg width="48" height="110" viewBox="0 0 48 110" fill="none" xmlns="http://www.w3.org/2000/svg">
<circle cx="24.1039" cy="15.0156" r="14.0156" fill="#E7E7E7" stroke="#B1B1B1" stroke-width="2"/>
<mask id="path-2-inside-1" fill="white">
<path d="M47.813 70.5341C47.813 65.3708 47.1946 60.2582 45.9932 55.488C44.7918 50.7178 43.0308 46.3835 40.8109 42.7326C38.591 39.0816 35.9556 36.1855 33.0551 34.2096C30.1546 32.2338 27.0459 31.2168 23.9065 31.2168C20.767 31.2168 17.6583 32.2338 14.7579 34.2096C11.8574 36.1855 9.22196 39.0816 7.00204 42.7326C4.78212 46.3835 3.02118 50.7178 1.81977 55.488C0.618359 60.2582 -2.74459e-07 65.3708 0 70.5341L23.9065 70.5341H47.813Z"/>
</mask>
<path d="M47.813 70.5341C47.813 65.3708 47.1946 60.2582 45.9932 55.488C44.7918 50.7178 43.0308 46.3835 40.8109 42.7326C38.591 39.0816 35.9556 36.1855 33.0551 34.2096C30.1546 32.2338 27.0459 31.2168 23.9065 31.2168C20.767 31.2168 17.6583 32.2338 14.7579 34.2096C11.8574 36.1855 9.22196 39.0816 7.00204 42.7326C4.78212 46.3835 3.02118 50.7178 1.81977 55.488C0.618359 60.2582 -2.74459e-07 65.3708 0 70.5341L23.9065 70.5341H47.813Z" fill="#E7E7E7" stroke="#B1B1B1" stroke-width="4" mask="url(#path-2-inside-1)"/>
</svg>
