<svg width="203" height="280" viewBox="0 0 203 280" fill="none" xmlns="http://www.w3.org/2000/svg">
<circle cx="101.522" cy="39" r="37" fill="#E7E7E7" stroke="#B1B1B1" stroke-width="2"/>
<mask id="path-2-inside-1" fill="white">
<path d="M161.522 179.5C161.522 166.433 159.957 153.495 156.916 141.423C153.876 129.351 149.419 118.382 143.802 109.143C138.184 99.9034 131.514 92.5743 124.174 87.574C116.834 82.5736 108.967 80 101.022 80C93.0766 80 85.2094 82.5736 77.8692 87.574C70.529 92.5743 63.8595 99.9035 58.2416 109.143C52.6236 118.382 48.1672 129.351 45.1268 141.423C42.0864 153.495 40.5215 166.433 40.5215 179.5L101.022 179.5H161.522Z"/>
</mask>
<path d="M161.522 179.5C161.522 166.433 159.957 153.495 156.916 141.423C153.876 129.351 149.419 118.382 143.802 109.143C138.184 99.9034 131.514 92.5743 124.174 87.574C116.834 82.5736 108.967 80 101.022 80C93.0766 80 85.2094 82.5736 77.8692 87.574C70.529 92.5743 63.8595 99.9035 58.2416 109.143C52.6236 118.382 48.1672 129.351 45.1268 141.423C42.0864 153.495 40.5215 166.433 40.5215 179.5L101.022 179.5H161.522Z" fill="#E7E7E7" stroke="#B1B1B1" stroke-width="4" mask="url(#path-2-inside-1)"/>
</svg>
