<svg width="234" height="95" viewBox="0 0 234 95" fill="none" xmlns="http://www.w3.org/2000/svg">
<mask maskUnits="userSpaceOnUse" x="0" y="0" width="0" height="0" fill="black">
<rect fill="white" width="0" height="0"/>
</mask>
<path d="M0 57.5L5 60.3868V54.6132L0 57.5ZM234 57.5L229 54.6132V60.3868L234 57.5ZM3.73404 58H6.2234V57H3.73404V58ZM8.71277 58H11.2021V57H8.71277V58ZM13.6915 58H16.1809V57H13.6915V58ZM18.6702 58H21.1596V57H18.6702V58ZM23.6489 58H26.1383V57H23.6489V58ZM28.6277 58H31.117V57H28.6277V58ZM33.6064 58H36.0957V57H33.6064V58ZM38.5851 58H41.0745V57H38.5851V58ZM43.5638 58H46.0532V57H43.5638V58ZM48.5425 58H51.0319V57H48.5425V58ZM53.5213 58H56.0106V57H53.5213V58ZM58.5 58H60.9893V57H58.5V58ZM63.4787 58H65.9681V57H63.4787V58ZM68.4574 58H70.9468V57H68.4574V58ZM73.4362 58H75.9255V57H73.4362V58ZM78.4149 58H80.9043V57H78.4149V58ZM83.3936 58H85.883V57H83.3936V58ZM88.3724 58H90.8617V57H88.3724V58ZM93.3511 58H95.8404V57H93.3511V58ZM98.3298 58H100.819V57H98.3298V58ZM103.309 58H105.798V57H103.309V58ZM108.287 58H110.777V57H108.287V58ZM113.266 58H115.755V57H113.266V58ZM118.245 58H120.734V57H118.245V58ZM123.223 58H125.713V57H123.223V58ZM128.202 58H130.692V57H128.202V58ZM133.181 58H135.67V57H133.181V58ZM138.16 58H140.649V57H138.16V58ZM143.138 58H145.628V57H143.138V58ZM148.117 58H150.606V57H148.117V58ZM153.096 58H155.585V57H153.096V58ZM158.075 58H160.564V57H158.075V58ZM163.053 58H165.543V57H163.053V58ZM168.032 58H170.521V57H168.032V58ZM173.011 58H175.5V57H173.011V58ZM177.989 58H180.479V57H177.989V58ZM182.968 58H185.458V57H182.968V58ZM187.947 58H190.436V57H187.947V58ZM192.926 58H195.415V57H192.926V58ZM197.904 58H200.394V57H197.904V58ZM202.883 58H205.372V57H202.883V58ZM207.862 58H210.351V57H207.862V58ZM212.841 58H215.33V57H212.841V58ZM217.819 58H220.309V57H217.819V58ZM222.798 58H225.287V57H222.798V58ZM227.777 58H230.266V57H227.777V58Z" fill="#D9565D" mask="url(#)"/>
<rect x="57.8429" y="20.3965" width="118.076" height="74.1209" fill="#F8D6D6"/>
<path d="M117.016 80.6911L58.1162 20.2158L175.868 20.1689L117.016 80.6911Z" fill="#EAD0D0"/>
<rect x="106.687" y="59.1797" width="2.47739" height="2.47739" fill="#D9565D"/>
<rect x="109.715" y="59.1797" width="2.47739" height="2.47739" fill="#D9565D"/>
<rect x="106.687" y="62.3457" width="2.47739" height="2.47739" fill="#D9565D"/>
<rect x="109.715" y="62.3457" width="2.47739" height="2.47739" fill="#D9565D"/>
<rect x="106.687" y="65.373" width="2.47739" height="2.47739" fill="#D9565D"/>
<rect x="109.715" y="65.373" width="2.47739" height="2.47739" fill="#D9565D"/>
<rect x="106.687" y="68.5391" width="2.47739" height="2.47739" fill="#D9565D"/>
<rect x="103.522" y="62.3457" width="2.47739" height="2.47739" fill="#D9565D"/>
<rect x="103.522" y="65.373" width="2.47739" height="2.47739" fill="#D9565D"/>
<rect x="103.522" y="68.5391" width="2.47739" height="2.47739" fill="#D9565D"/>
<rect x="109.715" y="68.5391" width="2.47739" height="2.47739" fill="#D9565D"/>
<rect x="112.881" y="77.7598" width="2.47739" height="2.47739" fill="#D9565D"/>
<rect x="115.909" y="77.7598" width="2.47739" height="2.47739" fill="#D9565D"/>
<rect x="106.687" y="71.5664" width="2.47739" height="2.47739" fill="#D9565D"/>
<rect x="109.715" y="71.5664" width="2.47739" height="2.47739" fill="#D9565D"/>
<rect x="112.881" y="62.3457" width="2.47739" height="2.47739" fill="#D9565D"/>
<rect x="112.881" y="65.373" width="2.47739" height="2.47739" fill="#D9565D"/>
<rect x="115.909" y="65.373" width="2.47739" height="2.47739" fill="#D9565D"/>
<rect x="112.881" y="68.5391" width="2.47739" height="2.47739" fill="#D9565D"/>
<rect x="115.909" y="68.5391" width="2.47739" height="2.47739" fill="#D9565D"/>
<rect x="112.881" y="71.5664" width="2.47739" height="2.47739" fill="#D9565D"/>
<rect x="109.715" y="74.7324" width="2.47739" height="2.47739" fill="#D9565D"/>
<rect x="112.881" y="74.7324" width="2.47739" height="2.47739" fill="#D9565D"/>
<rect width="2.47739" height="2.47739" transform="matrix(-1 0 0 1 127.745 59.1797)" fill="#D9565D"/>
<rect width="2.47739" height="2.47739" transform="matrix(-1 0 0 1 124.579 59.1797)" fill="#D9565D"/>
<rect width="2.47739" height="2.47739" transform="matrix(-1 0 0 1 127.745 62.3457)" fill="#D9565D"/>
<rect width="2.47739" height="2.47739" transform="matrix(-1 0 0 1 124.579 62.3457)" fill="#D9565D"/>
<rect width="2.47739" height="2.47739" transform="matrix(-1 0 0 1 127.745 65.373)" fill="#D9565D"/>
<rect width="2.47739" height="2.47739" transform="matrix(-1 0 0 1 124.579 65.373)" fill="#D9565D"/>
<rect width="2.47739" height="2.47739" transform="matrix(-1 0 0 1 127.745 68.5391)" fill="#D9565D"/>
<rect width="2.47739" height="2.47739" transform="matrix(-1 0 0 1 130.911 62.3457)" fill="#D9565D"/>
<rect width="2.47739" height="2.47739" transform="matrix(-1 0 0 1 130.911 65.373)" fill="#D9565D"/>
<rect width="2.47739" height="2.47739" transform="matrix(-1 0 0 1 130.911 68.5391)" fill="#D9565D"/>
<rect width="2.47739" height="2.47739" transform="matrix(-1 0 0 1 124.579 68.5391)" fill="#D9565D"/>
<rect width="2.47739" height="2.47739" transform="matrix(-1 0 0 1 121.552 77.7598)" fill="#D9565D"/>
<rect width="2.47739" height="2.47739" transform="matrix(-1 0 0 1 127.745 71.5664)" fill="#D9565D"/>
<rect width="2.47739" height="2.47739" transform="matrix(-1 0 0 1 124.579 71.5664)" fill="#D9565D"/>
<rect width="2.47739" height="2.47739" transform="matrix(-1 0 0 1 121.552 62.3457)" fill="#D9565D"/>
<rect width="2.47739" height="2.47739" transform="matrix(-1 0 0 1 121.552 65.373)" fill="#D9565D"/>
<rect width="2.47739" height="2.47739" transform="matrix(-1 0 0 1 121.552 68.5391)" fill="#D9565D"/>
<rect width="2.47739" height="2.47739" transform="matrix(-1 0 0 1 121.552 71.5664)" fill="#D9565D"/>
<rect width="2.47739" height="2.47739" transform="matrix(-1 0 0 1 124.579 74.7324)" fill="#D9565D"/>
<rect width="2.47739" height="2.47739" transform="matrix(-1 0 0 1 121.552 74.7324)" fill="#D9565D"/>
<rect x="115.909" y="71.5664" width="2.47739" height="2.47739" fill="#D9565D"/>
<rect x="115.909" y="74.7324" width="2.47739" height="2.47739" fill="#D9565D"/>
<rect x="115.909" y="80.9258" width="2.47739" height="2.47739" fill="#D9565D"/>
</svg>
