<?xml version="1.0" encoding="UTF-8"?>
<!DOCTYPE svg PUBLIC "-//W3C//DTD SVG 1.1//EN" "http://www.w3.org/Graphics/SVG/1.1/DTD/svg11.dtd">
<!-- Creator: CorelDRAW 2020 (64-Bit) -->
<svg xmlns="http://www.w3.org/2000/svg" xml:space="preserve" width="42.3332mm" height="42.3332mm" version="1.1" style="shape-rendering:geometricPrecision; text-rendering:geometricPrecision; image-rendering:optimizeQuality; fill-rule:evenodd; clip-rule:evenodd"
viewBox="0 0 4233.32 4233.32"
 xmlns:xlink="http://www.w3.org/1999/xlink"
 xmlns:xodm="http://www.corel.com/coreldraw/odm/2003">
 <defs>
  <style type="text/css">
   <![CDATA[
    .fil3 {fill:#66637C}
    .fil2 {fill:#E7E7E7}
    .fil1 {fill:#F5E3E3}
    .fil0 {fill:#F8F8F8}
    .fil4 {fill:#FAFAFA}
   ]]>
  </style>
 </defs>
 <g id="Layer_x0020_1">
  <metadata id="CorelCorpID_0Corel-Layer"/>
  <g id="_2110681065856">
   <path class="fil0" d="M3074.77 3470.62l-1945.28 5.71c-49.57,-485.38 298.98,-1424.52 973.69,-1424.01 675.49,0.52 1025.28,946.34 971.59,1418.3zm-1046.9 -2695.11c350.4,-56.87 636.34,207.96 686.28,505.78 59.84,356.79 -193.99,655.68 -499.84,707.02 -369.05,61.94 -664.35,-209.35 -709.78,-510.83 -57.92,-384.33 211.54,-651.4 523.34,-701.97zm-1514.42 -177.38l0 2949.56c0,86.24 11.88,98.44 98.47,98.44 492.41,0 2712.65,19.97 3020.38,-5.98l18.35 -3042.02c0,-92.3 8.29,-98.4 -89.16,-98.4l-2949.57 0c-86.05,0 -98.47,11.92 -98.47,98.4z"/>
   <path class="fil1" d="M485.37 565.36c0,-89.11 41.3,-96.05 126.55,-96.05l2949.57 0c82.66,0 119.47,27.56 119.47,112.42l0 2982.34c0,84.52 -36.93,112.52 -117.44,112.52 -456.12,0.19 -2796.09,24.37 -3052.45,-11.67 -14.48,-30.17 -25.7,-50.94 -25.7,-100.85l0 -2998.71zm-430.52 -442.43l0 3899.96c0,65.36 15.84,84.21 81.85,84.21l3883.6 0c118.13,0 90.17,-52.16 89.1,-165.65l-0.15 -3720.53c0.89,-128.24 33.46,-182.13 -88.95,-182.13l-3867.21 0c-78.81,0 -98.24,3.6 -98.24,84.14z"/>
   <path class="fil2" d="M3074.77 3470.62c53.69,-471.96 -296.1,-1417.78 -971.59,-1418.3 -674.71,-0.51 -1023.26,938.63 -973.69,1424.01l1945.28 -5.71z"/>
   <path class="fil2" d="M2027.87 775.51c-311.8,50.57 -581.26,317.64 -523.34,701.97 45.43,301.48 340.73,572.77 709.78,510.83 305.85,-51.34 559.68,-350.23 499.84,-707.02 -49.94,-297.82 -335.88,-562.65 -686.28,-505.78z"/>
   <path class="fil3" d="M130.26 4145.15c197.76,-47.01 3890.81,36.47 3971.96,-21.13 79.59,-91.82 39.12,-341.89 39.12,-478.01 0,-554.24 -15.7,-3462.8 7.24,-3529.57 42.61,18.76 30.32,5.85 36.79,69.93l-0.41 1935.7c0,213.75 23.56,2007.47 -19.89,2045.28 -33.35,29.01 -3225.04,10.3 -3831.83,13.14 -96.01,0.45 -155.66,18.76 -202.98,-35.34zm-75.41 -4022.22c0,-80.54 19.43,-84.14 98.24,-84.14l3867.21 0c122.41,0 89.84,53.89 88.95,182.13l0.15 3720.53c1.07,113.49 29.03,165.65 -89.1,165.65l-3883.6 0c-66.01,0 -81.85,-18.85 -81.85,-84.21l0 -3899.96zm-30.32 0l0 3883.57c0,120.62 6.65,82.12 65.72,144.15 45.33,47.63 29.85,59.2 128.4,59.2l3871.28 0c90.97,0 122.22,-28.76 122.22,-121.4l0 -3883.6c0,-106.74 -4.58,-72.44 -61.77,-130.29 -56.96,-57.62 -23.06,-66.09 -130.08,-66.09l-3879.5 0c-99.2,0 -116.27,21.63 -116.27,114.46z"/>
   <path class="fil3" d="M513.45 598.13c0,-86.48 12.42,-98.4 98.47,-98.4l2949.57 0c97.45,0 89.16,6.1 89.16,98.4l-18.35 3042.02c-307.73,25.95 -2527.97,5.98 -3020.38,5.98 -86.59,0 -98.47,-12.2 -98.47,-98.44l0 -2949.56zm-28.08 -32.77l0 2998.71c0,49.91 11.22,70.68 25.7,100.85 256.36,36.04 2596.33,11.86 3052.45,11.67 80.51,0 117.44,-28 117.44,-112.52l0 -2982.34c0,-84.86 -36.81,-112.42 -119.47,-112.42l-2949.57 0c-85.25,0 -126.55,6.94 -126.55,96.05z"/>
   <path class="fil4" d="M130.26 4145.15c47.32,54.1 106.97,35.79 202.98,35.34 606.79,-2.84 3798.48,15.87 3831.83,-13.14 43.45,-37.81 19.89,-1831.53 19.89,-2045.28l0.41 -1935.7c-6.47,-64.08 5.82,-51.17 -36.79,-69.93 -22.94,66.77 -7.24,2975.33 -7.24,3529.57 0,136.12 40.47,386.19 -39.12,478.01 -81.15,57.6 -3774.2,-25.88 -3971.96,21.13z"/>
  </g>
 </g>
</svg>
