<svg width="96" height="85" viewBox="0 0 96 85" fill="none" xmlns="http://www.w3.org/2000/svg">
<rect x="11.0953" width="8.68342" height="8.68342" fill="#C94950"/>
<rect x="21.7084" width="8.68342" height="8.68342" fill="#C94950"/>
<rect x="11.0953" y="11.0957" width="8.68342" height="8.68342" fill="#C94950"/>
<rect x="21.7084" y="11.0957" width="8.68342" height="8.68342" fill="#C94950"/>
<rect x="11.0953" y="21.709" width="8.68342" height="8.68342" fill="#C94950"/>
<rect x="21.7084" y="21.709" width="8.68342" height="8.68342" fill="#C94950"/>
<rect x="11.0953" y="32.8047" width="8.68342" height="8.68342" fill="#C94950"/>
<rect y="11.0957" width="8.68342" height="8.68342" fill="#C94950"/>
<rect y="21.709" width="8.68342" height="8.68342" fill="#C94950"/>
<rect y="32.8047" width="8.68342" height="8.68342" fill="#C94950"/>
<rect x="21.7084" y="32.8047" width="8.68342" height="8.68342" fill="#C94950"/>
<rect x="32.8042" y="65.125" width="8.68342" height="8.68342" fill="#C94950"/>
<rect x="43.4172" y="65.125" width="8.68342" height="8.68342" fill="#C94950"/>
<rect x="11.0953" y="43.418" width="8.68342" height="8.68342" fill="#C94950"/>
<rect x="21.7084" y="43.418" width="8.68342" height="8.68342" fill="#C94950"/>
<rect x="32.8042" y="11.0957" width="8.68342" height="8.68342" fill="#C94950"/>
<rect x="32.8042" y="21.709" width="8.68342" height="8.68342" fill="#C94950"/>
<rect x="43.4172" y="21.709" width="8.68342" height="8.68342" fill="#C94950"/>
<rect x="32.8042" y="32.8047" width="8.68342" height="8.68342" fill="#C94950"/>
<rect x="43.4172" y="32.8047" width="8.68342" height="8.68342" fill="#C94950"/>
<rect x="32.8042" y="43.418" width="8.68342" height="8.68342" fill="#C94950"/>
<rect x="21.7084" y="54.5117" width="8.68342" height="8.68342" fill="#C94950"/>
<rect x="32.8042" y="54.5117" width="8.68342" height="8.68342" fill="#C94950"/>
<rect width="8.68342" height="8.68342" transform="matrix(-1 0 0 1 84.9047 0)" fill="#C94950"/>
<rect width="8.68342" height="8.68342" transform="matrix(-1 0 0 1 73.8088 0)" fill="#C94950"/>
<rect width="8.68342" height="8.68342" transform="matrix(-1 0 0 1 84.9047 11.0957)" fill="#C94950"/>
<rect width="8.68342" height="8.68342" transform="matrix(-1 0 0 1 73.8088 11.0957)" fill="#C94950"/>
<rect width="8.68342" height="8.68342" transform="matrix(-1 0 0 1 84.9047 21.709)" fill="#C94950"/>
<rect width="8.68342" height="8.68342" transform="matrix(-1 0 0 1 73.8088 21.709)" fill="#C94950"/>
<rect width="8.68342" height="8.68342" transform="matrix(-1 0 0 1 84.9047 32.8047)" fill="#C94950"/>
<rect width="8.68342" height="8.68342" transform="matrix(-1 0 0 1 96 11.0957)" fill="#C94950"/>
<rect width="8.68342" height="8.68342" transform="matrix(-1 0 0 1 96 21.709)" fill="#C94950"/>
<rect width="8.68342" height="8.68342" transform="matrix(-1 0 0 1 96 32.8047)" fill="#C94950"/>
<rect width="8.68342" height="8.68342" transform="matrix(-1 0 0 1 73.8088 32.8047)" fill="#C94950"/>
<rect width="8.68342" height="8.68342" transform="matrix(-1 0 0 1 63.1963 65.125)" fill="#C94950"/>
<rect width="8.68342" height="8.68342" transform="matrix(-1 0 0 1 84.9047 43.418)" fill="#C94950"/>
<rect width="8.68342" height="8.68342" transform="matrix(-1 0 0 1 73.8088 43.418)" fill="#C94950"/>
<rect width="8.68342" height="8.68342" transform="matrix(-1 0 0 1 63.1963 11.0957)" fill="#C94950"/>
<rect width="8.68342" height="8.68342" transform="matrix(-1 0 0 1 63.1963 21.709)" fill="#C94950"/>
<rect width="8.68342" height="8.68342" transform="matrix(-1 0 0 1 63.1963 32.8047)" fill="#C94950"/>
<rect width="8.68342" height="8.68342" transform="matrix(-1 0 0 1 63.1963 43.418)" fill="#C94950"/>
<rect width="8.68342" height="8.68342" transform="matrix(-1 0 0 1 73.8088 54.5117)" fill="#C94950"/>
<rect width="8.68342" height="8.68342" transform="matrix(-1 0 0 1 63.1963 54.5117)" fill="#C94950"/>
<rect x="43.4172" y="43.418" width="8.68342" height="8.68342" fill="#C94950"/>
<rect x="43.4172" y="54.5117" width="8.68342" height="8.68342" fill="#C94950"/>
<rect x="43.4172" y="76.2207" width="8.68342" height="8.68342" fill="#C94950"/>
</svg>
