<svg width="107" height="30" viewBox="0 0 107 30" fill="none" xmlns="http://www.w3.org/2000/svg">
<rect x="40.6729" y="0.978516" width="2.87443" height="2.87443" fill="#D9565D"/>
<rect x="44.1861" y="0.978516" width="2.87443" height="2.87443" fill="#D9565D"/>
<rect x="40.6729" y="4.65234" width="2.87443" height="2.87443" fill="#D9565D"/>
<rect x="44.1861" y="4.65234" width="2.87443" height="2.87443" fill="#D9565D"/>
<rect x="40.6729" y="8.16406" width="2.87443" height="2.87443" fill="#D9565D"/>
<rect x="44.1861" y="8.16406" width="2.87443" height="2.87443" fill="#D9565D"/>
<rect x="40.6729" y="11.8379" width="2.87443" height="2.87443" fill="#D9565D"/>
<rect x="37" y="4.65234" width="2.87443" height="2.87443" fill="#D9565D"/>
<rect x="37" y="8.16406" width="2.87443" height="2.87443" fill="#D9565D"/>
<rect x="37" y="11.8379" width="2.87443" height="2.87443" fill="#D9565D"/>
<rect x="44.1861" y="11.8379" width="2.87443" height="2.87443" fill="#D9565D"/>
<rect x="47.859" y="22.5371" width="2.87443" height="2.87443" fill="#D9565D"/>
<rect x="51.3722" y="22.5371" width="2.87443" height="2.87443" fill="#D9565D"/>
<rect x="40.6729" y="15.3516" width="2.87443" height="2.87443" fill="#D9565D"/>
<rect x="44.1861" y="15.3516" width="2.87443" height="2.87443" fill="#D9565D"/>
<rect x="47.859" y="4.65234" width="2.87443" height="2.87443" fill="#D9565D"/>
<rect x="47.859" y="8.16406" width="2.87443" height="2.87443" fill="#D9565D"/>
<rect x="51.3722" y="8.16406" width="2.87443" height="2.87443" fill="#D9565D"/>
<rect x="47.859" y="11.8379" width="2.87443" height="2.87443" fill="#D9565D"/>
<rect x="51.3722" y="11.8379" width="2.87443" height="2.87443" fill="#D9565D"/>
<rect x="47.859" y="15.3516" width="2.87443" height="2.87443" fill="#D9565D"/>
<rect x="44.1861" y="19.0234" width="2.87443" height="2.87443" fill="#D9565D"/>
<rect x="47.859" y="19.0234" width="2.87443" height="2.87443" fill="#D9565D"/>
<rect width="2.87443" height="2.87443" transform="matrix(-1 0 0 1 65.1055 0.978516)" fill="#D9565D"/>
<rect width="2.87443" height="2.87443" transform="matrix(-1 0 0 1 61.4326 0.978516)" fill="#D9565D"/>
<rect width="2.87443" height="2.87443" transform="matrix(-1 0 0 1 65.1055 4.65234)" fill="#D9565D"/>
<rect width="2.87443" height="2.87443" transform="matrix(-1 0 0 1 61.4326 4.65234)" fill="#D9565D"/>
<rect width="2.87443" height="2.87443" transform="matrix(-1 0 0 1 65.1055 8.16406)" fill="#D9565D"/>
<rect width="2.87443" height="2.87443" transform="matrix(-1 0 0 1 61.4326 8.16406)" fill="#D9565D"/>
<rect width="2.87443" height="2.87443" transform="matrix(-1 0 0 1 65.1055 11.8379)" fill="#D9565D"/>
<rect width="2.87443" height="2.87443" transform="matrix(-1 0 0 1 68.7784 4.65234)" fill="#D9565D"/>
<rect width="2.87443" height="2.87443" transform="matrix(-1 0 0 1 68.7784 8.16406)" fill="#D9565D"/>
<rect width="2.87443" height="2.87443" transform="matrix(-1 0 0 1 68.7784 11.8379)" fill="#D9565D"/>
<rect width="2.87443" height="2.87443" transform="matrix(-1 0 0 1 61.4326 11.8379)" fill="#D9565D"/>
<rect width="2.87443" height="2.87443" transform="matrix(-1 0 0 1 57.9197 22.5371)" fill="#D9565D"/>
<rect width="2.87443" height="2.87443" transform="matrix(-1 0 0 1 65.1055 15.3516)" fill="#D9565D"/>
<rect width="2.87443" height="2.87443" transform="matrix(-1 0 0 1 61.4326 15.3516)" fill="#D9565D"/>
<rect width="2.87443" height="2.87443" transform="matrix(-1 0 0 1 57.9197 4.65234)" fill="#D9565D"/>
<rect width="2.87443" height="2.87443" transform="matrix(-1 0 0 1 57.9197 8.16406)" fill="#D9565D"/>
<rect width="2.87443" height="2.87443" transform="matrix(-1 0 0 1 57.9197 11.8379)" fill="#D9565D"/>
<rect width="2.87443" height="2.87443" transform="matrix(-1 0 0 1 57.9197 15.3516)" fill="#D9565D"/>
<rect width="2.87443" height="2.87443" transform="matrix(-1 0 0 1 61.4326 19.0234)" fill="#D9565D"/>
<rect width="2.87443" height="2.87443" transform="matrix(-1 0 0 1 57.9197 19.0234)" fill="#D9565D"/>
<rect x="51.3722" y="15.3516" width="2.87443" height="2.87443" fill="#D9565D"/>
<rect x="51.3722" y="19.0234" width="2.87443" height="2.87443" fill="#D9565D"/>
<rect x="51.3722" y="26.209" width="2.87443" height="2.87443" fill="#D9565D"/>
<line y1="11.4785" x2="37" y2="11.4785" stroke="#D9565D" stroke-dasharray="2.5 2.5"/>
<line x1="70" y1="11.4785" x2="107" y2="11.4785" stroke="#D9565D" stroke-dasharray="2.5 2.5"/>
</svg>
